<svg width="923" height="22" viewBox="0 0 923 22" fill="none" xmlns="http://www.w3.org/2000/svg">
<path d="M166.883 13.4688C166.883 13.2031 166.841 12.9688 166.758 12.7656C166.68 12.5573 166.539 12.3698 166.336 12.2031C166.138 12.0365 165.862 11.8776 165.508 11.7266C165.159 11.5755 164.716 11.4219 164.18 11.2656C163.617 11.099 163.109 10.9141 162.656 10.7109C162.203 10.5026 161.815 10.2656 161.492 10C161.169 9.73438 160.922 9.42969 160.75 9.08594C160.578 8.74219 160.492 8.34896 160.492 7.90625C160.492 7.46354 160.583 7.05469 160.766 6.67969C160.948 6.30469 161.208 5.97917 161.547 5.70312C161.891 5.42188 162.299 5.20312 162.773 5.04688C163.247 4.89062 163.776 4.8125 164.359 4.8125C165.214 4.8125 165.938 4.97656 166.531 5.30469C167.13 5.6276 167.586 6.05208 167.898 6.57812C168.211 7.09896 168.367 7.65625 168.367 8.25H166.867C166.867 7.82292 166.776 7.44531 166.594 7.11719C166.411 6.78385 166.135 6.52344 165.766 6.33594C165.396 6.14323 164.927 6.04688 164.359 6.04688C163.823 6.04688 163.38 6.1276 163.031 6.28906C162.682 6.45052 162.422 6.66927 162.25 6.94531C162.083 7.22135 162 7.53646 162 7.89062C162 8.13021 162.049 8.34896 162.148 8.54688C162.253 8.73958 162.411 8.91927 162.625 9.08594C162.844 9.2526 163.12 9.40625 163.453 9.54688C163.792 9.6875 164.195 9.82292 164.664 9.95312C165.31 10.1354 165.867 10.3385 166.336 10.5625C166.805 10.7865 167.19 11.0391 167.492 11.3203C167.799 11.5964 168.026 11.9115 168.172 12.2656C168.323 12.6146 168.398 13.0104 168.398 13.4531C168.398 13.9167 168.305 14.3359 168.117 14.7109C167.93 15.0859 167.661 15.4062 167.312 15.6719C166.964 15.9375 166.544 16.1432 166.055 16.2891C165.57 16.4297 165.029 16.5 164.43 16.5C163.904 16.5 163.385 16.4271 162.875 16.2812C162.37 16.1354 161.909 15.9167 161.492 15.625C161.081 15.3333 160.75 14.974 160.5 14.5469C160.255 14.1146 160.133 13.6146 160.133 13.0469H161.633C161.633 13.4375 161.708 13.7734 161.859 14.0547C162.01 14.3307 162.216 14.5599 162.477 14.7422C162.742 14.9245 163.042 15.0599 163.375 15.1484C163.714 15.2318 164.065 15.2734 164.43 15.2734C164.956 15.2734 165.401 15.2005 165.766 15.0547C166.13 14.9089 166.406 14.7005 166.594 14.4297C166.786 14.1589 166.883 13.8385 166.883 13.4688ZM175.273 14.3906V7.89062H176.727V16.3438H175.344L175.273 14.3906ZM175.547 12.6094L176.148 12.5938C176.148 13.1562 176.089 13.6771 175.969 14.1562C175.854 14.6302 175.667 15.0417 175.406 15.3906C175.146 15.7396 174.805 16.013 174.383 16.2109C173.961 16.4036 173.448 16.5 172.844 16.5C172.432 16.5 172.055 16.4401 171.711 16.3203C171.372 16.2005 171.081 16.0156 170.836 15.7656C170.591 15.5156 170.401 15.1901 170.266 14.7891C170.135 14.388 170.07 13.9062 170.07 13.3438V7.89062H171.516V13.3594C171.516 13.7396 171.557 14.0547 171.641 14.3047C171.729 14.5495 171.846 14.7448 171.992 14.8906C172.143 15.0312 172.31 15.1302 172.492 15.1875C172.68 15.2448 172.872 15.2734 173.07 15.2734C173.685 15.2734 174.172 15.1562 174.531 14.9219C174.891 14.6823 175.148 14.362 175.305 13.9609C175.466 13.5547 175.547 13.1042 175.547 12.6094ZM180.367 9.57031V16.3438H178.914V7.89062H180.289L180.367 9.57031ZM180.07 11.7969L179.398 11.7734C179.404 11.1953 179.479 10.6615 179.625 10.1719C179.771 9.67708 179.987 9.2474 180.273 8.88281C180.56 8.51823 180.917 8.23698 181.344 8.03906C181.771 7.83594 182.266 7.73438 182.828 7.73438C183.224 7.73438 183.589 7.79167 183.922 7.90625C184.255 8.01562 184.544 8.1901 184.789 8.42969C185.034 8.66927 185.224 8.97656 185.359 9.35156C185.495 9.72656 185.562 10.1797 185.562 10.7109V16.3438H184.117V10.7812C184.117 10.3385 184.042 9.98438 183.891 9.71875C183.745 9.45312 183.536 9.26042 183.266 9.14062C182.995 9.01562 182.677 8.95312 182.312 8.95312C181.885 8.95312 181.529 9.02865 181.242 9.17969C180.956 9.33073 180.727 9.53906 180.555 9.80469C180.383 10.0703 180.258 10.375 180.18 10.7188C180.107 11.0573 180.07 11.4167 180.07 11.7969ZM185.547 11L184.578 11.2969C184.583 10.8333 184.659 10.388 184.805 9.96094C184.956 9.53385 185.172 9.15365 185.453 8.82031C185.74 8.48698 186.091 8.22396 186.508 8.03125C186.924 7.83333 187.401 7.73438 187.938 7.73438C188.391 7.73438 188.792 7.79427 189.141 7.91406C189.495 8.03385 189.792 8.21875 190.031 8.46875C190.276 8.71354 190.461 9.02865 190.586 9.41406C190.711 9.79948 190.773 10.2578 190.773 10.7891V16.3438H189.32V10.7734C189.32 10.2995 189.245 9.93229 189.094 9.67188C188.948 9.40625 188.74 9.22135 188.469 9.11719C188.203 9.00781 187.885 8.95312 187.516 8.95312C187.198 8.95312 186.917 9.00781 186.672 9.11719C186.427 9.22656 186.221 9.3776 186.055 9.57031C185.888 9.75781 185.76 9.97396 185.672 10.2188C185.589 10.4635 185.547 10.724 185.547 11ZM194.531 7.89062V16.3438H193.078V7.89062H194.531ZM192.969 5.64844C192.969 5.41406 193.039 5.21615 193.18 5.05469C193.326 4.89323 193.539 4.8125 193.82 4.8125C194.096 4.8125 194.307 4.89323 194.453 5.05469C194.604 5.21615 194.68 5.41406 194.68 5.64844C194.68 5.8724 194.604 6.0651 194.453 6.22656C194.307 6.38281 194.096 6.46094 193.82 6.46094C193.539 6.46094 193.326 6.38281 193.18 6.22656C193.039 6.0651 192.969 5.8724 192.969 5.64844ZM200.391 7.89062V9H195.82V7.89062H200.391ZM197.367 5.83594H198.812V14.25C198.812 14.5365 198.857 14.7526 198.945 14.8984C199.034 15.0443 199.148 15.1406 199.289 15.1875C199.43 15.2344 199.581 15.2578 199.742 15.2578C199.862 15.2578 199.987 15.2474 200.117 15.2266C200.253 15.2005 200.354 15.1797 200.422 15.1641L200.43 16.3438C200.315 16.3802 200.164 16.4141 199.977 16.4453C199.794 16.4818 199.573 16.5 199.312 16.5C198.958 16.5 198.633 16.4297 198.336 16.2891C198.039 16.1484 197.802 15.9141 197.625 15.5859C197.453 15.2526 197.367 14.8047 197.367 14.2422V5.83594ZM213.703 9.85938V11.0859H207.547V9.85938H213.703ZM207.781 4.96875V16.3438H206.273V4.96875H207.781ZM215.016 4.96875V16.3438H213.516V4.96875H215.016ZM220.984 16.5C220.396 16.5 219.862 16.401 219.383 16.2031C218.909 16 218.5 15.7161 218.156 15.3516C217.818 14.987 217.557 14.5547 217.375 14.0547C217.193 13.5547 217.102 13.0078 217.102 12.4141V12.0859C217.102 11.3984 217.203 10.7865 217.406 10.25C217.609 9.70833 217.885 9.25 218.234 8.875C218.583 8.5 218.979 8.21615 219.422 8.02344C219.865 7.83073 220.323 7.73438 220.797 7.73438C221.401 7.73438 221.922 7.83854 222.359 8.04688C222.802 8.25521 223.164 8.54688 223.445 8.92188C223.727 9.29167 223.935 9.72917 224.07 10.2344C224.206 10.7344 224.273 11.2812 224.273 11.875V12.5234H217.961V11.3438H222.828V11.2344C222.807 10.8594 222.729 10.4948 222.594 10.1406C222.464 9.78646 222.255 9.49479 221.969 9.26562C221.682 9.03646 221.292 8.92188 220.797 8.92188C220.469 8.92188 220.167 8.99219 219.891 9.13281C219.615 9.26823 219.378 9.47135 219.18 9.74219C218.982 10.013 218.828 10.3438 218.719 10.7344C218.609 11.125 218.555 11.5755 218.555 12.0859V12.4141C218.555 12.8151 218.609 13.1927 218.719 13.5469C218.833 13.8958 218.997 14.2031 219.211 14.4688C219.43 14.7344 219.693 14.9427 220 15.0938C220.312 15.2448 220.667 15.3203 221.062 15.3203C221.573 15.3203 222.005 15.2161 222.359 15.0078C222.714 14.7995 223.023 14.5208 223.289 14.1719L224.164 14.8672C223.982 15.1432 223.75 15.4062 223.469 15.6562C223.188 15.9062 222.841 16.1094 222.43 16.2656C222.023 16.4219 221.542 16.5 220.984 16.5ZM231.438 7.89062H232.75V16.1641C232.75 16.9089 232.599 17.5443 232.297 18.0703C231.995 18.5964 231.573 18.9948 231.031 19.2656C230.495 19.5417 229.875 19.6797 229.172 19.6797C228.88 19.6797 228.536 19.6328 228.141 19.5391C227.75 19.4505 227.365 19.2969 226.984 19.0781C226.609 18.8646 226.294 18.5755 226.039 18.2109L226.797 17.3516C227.151 17.7786 227.521 18.0755 227.906 18.2422C228.297 18.4089 228.682 18.4922 229.062 18.4922C229.521 18.4922 229.917 18.4062 230.25 18.2344C230.583 18.0625 230.841 17.8073 231.023 17.4688C231.211 17.1354 231.305 16.724 231.305 16.2344V9.75L231.438 7.89062ZM225.617 12.2109V12.0469C225.617 11.401 225.693 10.8151 225.844 10.2891C226 9.75781 226.221 9.30208 226.508 8.92188C226.799 8.54167 227.151 8.25 227.562 8.04688C227.974 7.83854 228.438 7.73438 228.953 7.73438C229.484 7.73438 229.948 7.82812 230.344 8.01562C230.745 8.19792 231.083 8.46615 231.359 8.82031C231.641 9.16927 231.862 9.59115 232.023 10.0859C232.185 10.5807 232.297 11.1406 232.359 11.7656V12.4844C232.302 13.1042 232.19 13.6615 232.023 14.1562C231.862 14.651 231.641 15.0729 231.359 15.4219C231.083 15.7708 230.745 16.0391 230.344 16.2266C229.943 16.4089 229.474 16.5 228.938 16.5C228.432 16.5 227.974 16.3932 227.562 16.1797C227.156 15.9661 226.807 15.6667 226.516 15.2812C226.224 14.8958 226 14.4427 225.844 13.9219C225.693 13.3958 225.617 12.8255 225.617 12.2109ZM227.062 12.0469V12.2109C227.062 12.6328 227.104 13.0286 227.188 13.3984C227.276 13.7682 227.409 14.0938 227.586 14.375C227.768 14.6562 228 14.8776 228.281 15.0391C228.562 15.1953 228.898 15.2734 229.289 15.2734C229.768 15.2734 230.164 15.1719 230.477 14.9688C230.789 14.7656 231.036 14.4974 231.219 14.1641C231.406 13.8307 231.552 13.4688 231.656 13.0781V11.1953C231.599 10.9089 231.51 10.6328 231.391 10.3672C231.276 10.0964 231.125 9.85677 230.938 9.64844C230.755 9.4349 230.529 9.26562 230.258 9.14062C229.987 9.01562 229.669 8.95312 229.305 8.95312C228.909 8.95312 228.568 9.03646 228.281 9.20312C228 9.36458 227.768 9.58854 227.586 9.875C227.409 10.1562 227.276 10.4844 227.188 10.8594C227.104 11.2292 227.062 11.625 227.062 12.0469ZM240.273 14.7031V4.34375H241.727V16.3438H240.398L240.273 14.7031ZM234.586 12.2109V12.0469C234.586 11.401 234.664 10.8151 234.82 10.2891C234.982 9.75781 235.208 9.30208 235.5 8.92188C235.797 8.54167 236.148 8.25 236.555 8.04688C236.966 7.83854 237.424 7.73438 237.93 7.73438C238.461 7.73438 238.924 7.82812 239.32 8.01562C239.721 8.19792 240.06 8.46615 240.336 8.82031C240.617 9.16927 240.839 9.59115 241 10.0859C241.161 10.5807 241.273 11.1406 241.336 11.7656V12.4844C241.279 13.1042 241.167 13.6615 241 14.1562C240.839 14.651 240.617 15.0729 240.336 15.4219C240.06 15.7708 239.721 16.0391 239.32 16.2266C238.919 16.4089 238.451 16.5 237.914 16.5C237.419 16.5 236.966 16.3932 236.555 16.1797C236.148 15.9661 235.797 15.6667 235.5 15.2812C235.208 14.8958 234.982 14.4427 234.82 13.9219C234.664 13.3958 234.586 12.8255 234.586 12.2109ZM236.039 12.0469V12.2109C236.039 12.6328 236.081 13.0286 236.164 13.3984C236.253 13.7682 236.388 14.0938 236.57 14.375C236.753 14.6562 236.984 14.8776 237.266 15.0391C237.547 15.1953 237.883 15.2734 238.273 15.2734C238.753 15.2734 239.146 15.1719 239.453 14.9688C239.766 14.7656 240.016 14.4974 240.203 14.1641C240.391 13.8307 240.536 13.4688 240.641 13.0781V11.1953C240.578 10.9089 240.487 10.6328 240.367 10.3672C240.253 10.0964 240.102 9.85677 239.914 9.64844C239.732 9.4349 239.505 9.26562 239.234 9.14062C238.969 9.01562 238.654 8.95312 238.289 8.95312C237.893 8.95312 237.552 9.03646 237.266 9.20312C236.984 9.36458 236.753 9.58854 236.57 9.875C236.388 10.1562 236.253 10.4844 236.164 10.8594C236.081 11.2292 236.039 11.625 236.039 12.0469ZM247.484 16.5C246.896 16.5 246.362 16.401 245.883 16.2031C245.409 16 245 15.7161 244.656 15.3516C244.318 14.987 244.057 14.5547 243.875 14.0547C243.693 13.5547 243.602 13.0078 243.602 12.4141V12.0859C243.602 11.3984 243.703 10.7865 243.906 10.25C244.109 9.70833 244.385 9.25 244.734 8.875C245.083 8.5 245.479 8.21615 245.922 8.02344C246.365 7.83073 246.823 7.73438 247.297 7.73438C247.901 7.73438 248.422 7.83854 248.859 8.04688C249.302 8.25521 249.664 8.54688 249.945 8.92188C250.227 9.29167 250.435 9.72917 250.57 10.2344C250.706 10.7344 250.773 11.2812 250.773 11.875V12.5234H244.461V11.3438H249.328V11.2344C249.307 10.8594 249.229 10.4948 249.094 10.1406C248.964 9.78646 248.755 9.49479 248.469 9.26562C248.182 9.03646 247.792 8.92188 247.297 8.92188C246.969 8.92188 246.667 8.99219 246.391 9.13281C246.115 9.26823 245.878 9.47135 245.68 9.74219C245.482 10.013 245.328 10.3438 245.219 10.7344C245.109 11.125 245.055 11.5755 245.055 12.0859V12.4141C245.055 12.8151 245.109 13.1927 245.219 13.5469C245.333 13.8958 245.497 14.2031 245.711 14.4688C245.93 14.7344 246.193 14.9427 246.5 15.0938C246.812 15.2448 247.167 15.3203 247.562 15.3203C248.073 15.3203 248.505 15.2161 248.859 15.0078C249.214 14.7995 249.523 14.5208 249.789 14.1719L250.664 14.8672C250.482 15.1432 250.25 15.4062 249.969 15.6562C249.688 15.9062 249.341 16.1094 248.93 16.2656C248.523 16.4219 248.042 16.5 247.484 16.5Z" fill="#8A95AD"/>
<path d="M368.812 12.9062L371.07 4.96875H372.164L371.531 8.05469L369.102 16.3438H368.016L368.812 12.9062ZM366.477 4.96875L368.273 12.75L368.812 16.3438H367.734L364.977 4.96875H366.477ZM375.086 12.7422L376.844 4.96875H378.352L375.602 16.3438H374.523L375.086 12.7422ZM372.328 4.96875L374.523 12.9062L375.32 16.3438H374.234L371.891 8.05469L371.25 4.96875H372.328ZM383.062 16.5C382.474 16.5 381.94 16.401 381.461 16.2031C380.987 16 380.578 15.7161 380.234 15.3516C379.896 14.987 379.635 14.5547 379.453 14.0547C379.271 13.5547 379.18 13.0078 379.18 12.4141V12.0859C379.18 11.3984 379.281 10.7865 379.484 10.25C379.688 9.70833 379.964 9.25 380.312 8.875C380.661 8.5 381.057 8.21615 381.5 8.02344C381.943 7.83073 382.401 7.73438 382.875 7.73438C383.479 7.73438 384 7.83854 384.438 8.04688C384.88 8.25521 385.242 8.54688 385.523 8.92188C385.805 9.29167 386.013 9.72917 386.148 10.2344C386.284 10.7344 386.352 11.2812 386.352 11.875V12.5234H380.039V11.3438H384.906V11.2344C384.885 10.8594 384.807 10.4948 384.672 10.1406C384.542 9.78646 384.333 9.49479 384.047 9.26562C383.76 9.03646 383.37 8.92188 382.875 8.92188C382.547 8.92188 382.245 8.99219 381.969 9.13281C381.693 9.26823 381.456 9.47135 381.258 9.74219C381.06 10.013 380.906 10.3438 380.797 10.7344C380.688 11.125 380.633 11.5755 380.633 12.0859V12.4141C380.633 12.8151 380.688 13.1927 380.797 13.5469C380.911 13.8958 381.076 14.2031 381.289 14.4688C381.508 14.7344 381.771 14.9427 382.078 15.0938C382.391 15.2448 382.745 15.3203 383.141 15.3203C383.651 15.3203 384.083 15.2161 384.438 15.0078C384.792 14.7995 385.102 14.5208 385.367 14.1719L386.242 14.8672C386.06 15.1432 385.828 15.4062 385.547 15.6562C385.266 15.9062 384.919 16.1094 384.508 16.2656C384.102 16.4219 383.62 16.5 383.062 16.5ZM388.031 4.34375H389.484V14.7031L389.359 16.3438H388.031V4.34375ZM395.195 12.0469V12.2109C395.195 12.8255 395.122 13.3958 394.977 13.9219C394.831 14.4427 394.617 14.8958 394.336 15.2812C394.055 15.6667 393.711 15.9661 393.305 16.1797C392.898 16.3932 392.432 16.5 391.906 16.5C391.37 16.5 390.898 16.4089 390.492 16.2266C390.091 16.0391 389.753 15.7708 389.477 15.4219C389.201 15.0729 388.979 14.651 388.812 14.1562C388.651 13.6615 388.539 13.1042 388.477 12.4844V11.7656C388.539 11.1406 388.651 10.5807 388.812 10.0859C388.979 9.59115 389.201 9.16927 389.477 8.82031C389.753 8.46615 390.091 8.19792 390.492 8.01562C390.893 7.82812 391.359 7.73438 391.891 7.73438C392.422 7.73438 392.893 7.83854 393.305 8.04688C393.716 8.25 394.06 8.54167 394.336 8.92188C394.617 9.30208 394.831 9.75781 394.977 10.2891C395.122 10.8151 395.195 11.401 395.195 12.0469ZM393.742 12.2109V12.0469C393.742 11.625 393.703 11.2292 393.625 10.8594C393.547 10.4844 393.422 10.1562 393.25 9.875C393.078 9.58854 392.852 9.36458 392.57 9.20312C392.289 9.03646 391.943 8.95312 391.531 8.95312C391.167 8.95312 390.849 9.01562 390.578 9.14062C390.312 9.26562 390.086 9.4349 389.898 9.64844C389.711 9.85677 389.557 10.0964 389.438 10.3672C389.323 10.6328 389.237 10.9089 389.18 11.1953V13.0781C389.263 13.4427 389.398 13.7943 389.586 14.1328C389.779 14.4661 390.034 14.7396 390.352 14.9531C390.674 15.1667 391.073 15.2734 391.547 15.2734C391.938 15.2734 392.271 15.1953 392.547 15.0391C392.828 14.8776 393.055 14.6562 393.227 14.375C393.404 14.0938 393.534 13.7682 393.617 13.3984C393.701 13.0286 393.742 12.6328 393.742 12.2109ZM399.18 16.3438H397.734V7C397.734 6.39062 397.846 5.8776 398.07 5.46094C398.299 5.03906 398.628 4.72135 399.055 4.50781C399.487 4.28906 400.01 4.17969 400.625 4.17969C400.854 4.17969 401.141 4.20312 401.484 4.25C401.833 4.29688 402.203 4.35677 402.594 4.42969C402.99 4.5026 403.375 4.57812 403.75 4.65625L403.078 5.70312C402.583 5.60938 402.138 5.53906 401.742 5.49219C401.346 5.4401 401.01 5.41406 400.734 5.41406C400.396 5.41406 400.109 5.47656 399.875 5.60156C399.646 5.72135 399.471 5.89844 399.352 6.13281C399.237 6.36719 399.18 6.65625 399.18 7V16.3438ZM402.305 16.3438V4.65625H403.75V16.3438H402.305ZM400.977 7.89062V9H396.398V7.89062H400.977ZM405.734 12.2109V12.0312C405.734 11.4219 405.823 10.8568 406 10.3359C406.177 9.8099 406.432 9.35417 406.766 8.96875C407.099 8.57812 407.503 8.27604 407.977 8.0625C408.451 7.84375 408.982 7.73438 409.57 7.73438C410.164 7.73438 410.698 7.84375 411.172 8.0625C411.651 8.27604 412.057 8.57812 412.391 8.96875C412.729 9.35417 412.987 9.8099 413.164 10.3359C413.341 10.8568 413.43 11.4219 413.43 12.0312V12.2109C413.43 12.8203 413.341 13.3854 413.164 13.9062C412.987 14.4271 412.729 14.8828 412.391 15.2734C412.057 15.6589 411.654 15.9609 411.18 16.1797C410.711 16.3932 410.18 16.5 409.586 16.5C408.992 16.5 408.458 16.3932 407.984 16.1797C407.51 15.9609 407.104 15.6589 406.766 15.2734C406.432 14.8828 406.177 14.4271 406 13.9062C405.823 13.3854 405.734 12.8203 405.734 12.2109ZM407.18 12.0312V12.2109C407.18 12.6328 407.229 13.0312 407.328 13.4062C407.427 13.776 407.576 14.1042 407.773 14.3906C407.977 14.6771 408.229 14.9036 408.531 15.0703C408.833 15.2318 409.185 15.3125 409.586 15.3125C409.982 15.3125 410.328 15.2318 410.625 15.0703C410.927 14.9036 411.177 14.6771 411.375 14.3906C411.573 14.1042 411.721 13.776 411.82 13.4062C411.924 13.0312 411.977 12.6328 411.977 12.2109V12.0312C411.977 11.6146 411.924 11.2214 411.82 10.8516C411.721 10.4766 411.57 10.1458 411.367 9.85938C411.169 9.56771 410.919 9.33854 410.617 9.17188C410.32 9.00521 409.971 8.92188 409.57 8.92188C409.174 8.92188 408.826 9.00521 408.523 9.17188C408.227 9.33854 407.977 9.56771 407.773 9.85938C407.576 10.1458 407.427 10.4766 407.328 10.8516C407.229 11.2214 407.18 11.6146 407.18 12.0312ZM417.383 14.8438L419.555 7.89062H420.508L420.32 9.27344L418.109 16.3438H417.18L417.383 14.8438ZM415.922 7.89062L417.773 14.9219L417.906 16.3438H416.93L414.477 7.89062H415.922ZM422.586 14.8672L424.352 7.89062H425.789L423.336 16.3438H422.367L422.586 14.8672ZM420.719 7.89062L422.844 14.7266L423.086 16.3438H422.164L419.891 9.25781L419.703 7.89062H420.719Z" fill="#8A95AD"/>
<path d="M454.438 4.96875V16.3438H452.93V4.96875H454.438ZM458.398 9.57031V16.3438H456.945V7.89062H458.32L458.398 9.57031ZM458.102 11.7969L457.43 11.7734C457.435 11.1953 457.51 10.6615 457.656 10.1719C457.802 9.67708 458.018 9.2474 458.305 8.88281C458.591 8.51823 458.948 8.23698 459.375 8.03906C459.802 7.83594 460.297 7.73438 460.859 7.73438C461.255 7.73438 461.62 7.79167 461.953 7.90625C462.286 8.01562 462.576 8.1901 462.82 8.42969C463.065 8.66927 463.255 8.97656 463.391 9.35156C463.526 9.72656 463.594 10.1797 463.594 10.7109V16.3438H462.148V10.7812C462.148 10.3385 462.073 9.98438 461.922 9.71875C461.776 9.45312 461.568 9.26042 461.297 9.14062C461.026 9.01562 460.708 8.95312 460.344 8.95312C459.917 8.95312 459.56 9.02865 459.273 9.17969C458.987 9.33073 458.758 9.53906 458.586 9.80469C458.414 10.0703 458.289 10.375 458.211 10.7188C458.138 11.0573 458.102 11.4167 458.102 11.7969ZM463.578 11L462.609 11.2969C462.615 10.8333 462.69 10.388 462.836 9.96094C462.987 9.53385 463.203 9.15365 463.484 8.82031C463.771 8.48698 464.122 8.22396 464.539 8.03125C464.956 7.83333 465.432 7.73438 465.969 7.73438C466.422 7.73438 466.823 7.79427 467.172 7.91406C467.526 8.03385 467.823 8.21875 468.062 8.46875C468.307 8.71354 468.492 9.02865 468.617 9.41406C468.742 9.79948 468.805 10.2578 468.805 10.7891V16.3438H467.352V10.7734C467.352 10.2995 467.276 9.93229 467.125 9.67188C466.979 9.40625 466.771 9.22135 466.5 9.11719C466.234 9.00781 465.917 8.95312 465.547 8.95312C465.229 8.95312 464.948 9.00781 464.703 9.11719C464.458 9.22656 464.253 9.3776 464.086 9.57031C463.919 9.75781 463.792 9.97396 463.703 10.2188C463.62 10.4635 463.578 10.724 463.578 11ZM475.977 14.8984V10.5469C475.977 10.2135 475.909 9.92448 475.773 9.67969C475.643 9.42969 475.445 9.23698 475.18 9.10156C474.914 8.96615 474.586 8.89844 474.195 8.89844C473.831 8.89844 473.51 8.96094 473.234 9.08594C472.964 9.21094 472.75 9.375 472.594 9.57812C472.443 9.78125 472.367 10 472.367 10.2344H470.922C470.922 9.93229 471 9.63281 471.156 9.33594C471.312 9.03906 471.536 8.77083 471.828 8.53125C472.125 8.28646 472.479 8.09375 472.891 7.95312C473.307 7.80729 473.771 7.73438 474.281 7.73438C474.896 7.73438 475.438 7.83854 475.906 8.04688C476.38 8.25521 476.75 8.57031 477.016 8.99219C477.286 9.40885 477.422 9.93229 477.422 10.5625V14.5C477.422 14.7812 477.445 15.0807 477.492 15.3984C477.544 15.7161 477.62 15.9896 477.719 16.2188V16.3438H476.211C476.138 16.1771 476.081 15.9557 476.039 15.6797C475.997 15.3984 475.977 15.138 475.977 14.8984ZM476.227 11.2188L476.242 12.2344H474.781C474.37 12.2344 474.003 12.2682 473.68 12.3359C473.357 12.3984 473.086 12.4948 472.867 12.625C472.648 12.7552 472.482 12.9193 472.367 13.1172C472.253 13.3099 472.195 13.5365 472.195 13.7969C472.195 14.0625 472.255 14.3047 472.375 14.5234C472.495 14.7422 472.674 14.9167 472.914 15.0469C473.159 15.1719 473.458 15.2344 473.812 15.2344C474.255 15.2344 474.646 15.1406 474.984 14.9531C475.323 14.7656 475.591 14.5365 475.789 14.2656C475.992 13.9948 476.102 13.7318 476.117 13.4766L476.734 14.1719C476.698 14.3906 476.599 14.6328 476.438 14.8984C476.276 15.1641 476.06 15.4193 475.789 15.6641C475.523 15.9036 475.206 16.1042 474.836 16.2656C474.471 16.4219 474.06 16.5 473.602 16.5C473.029 16.5 472.526 16.388 472.094 16.1641C471.667 15.9401 471.333 15.6406 471.094 15.2656C470.859 14.8854 470.742 14.4609 470.742 13.9922C470.742 13.5391 470.831 13.1406 471.008 12.7969C471.185 12.4479 471.44 12.1589 471.773 11.9297C472.107 11.6953 472.508 11.5182 472.977 11.3984C473.445 11.2786 473.969 11.2188 474.547 11.2188H476.227ZM485.172 7.89062H486.484V16.1641C486.484 16.9089 486.333 17.5443 486.031 18.0703C485.729 18.5964 485.307 18.9948 484.766 19.2656C484.229 19.5417 483.609 19.6797 482.906 19.6797C482.615 19.6797 482.271 19.6328 481.875 19.5391C481.484 19.4505 481.099 19.2969 480.719 19.0781C480.344 18.8646 480.029 18.5755 479.773 18.2109L480.531 17.3516C480.885 17.7786 481.255 18.0755 481.641 18.2422C482.031 18.4089 482.417 18.4922 482.797 18.4922C483.255 18.4922 483.651 18.4062 483.984 18.2344C484.318 18.0625 484.576 17.8073 484.758 17.4688C484.945 17.1354 485.039 16.724 485.039 16.2344V9.75L485.172 7.89062ZM479.352 12.2109V12.0469C479.352 11.401 479.427 10.8151 479.578 10.2891C479.734 9.75781 479.956 9.30208 480.242 8.92188C480.534 8.54167 480.885 8.25 481.297 8.04688C481.708 7.83854 482.172 7.73438 482.688 7.73438C483.219 7.73438 483.682 7.82812 484.078 8.01562C484.479 8.19792 484.818 8.46615 485.094 8.82031C485.375 9.16927 485.596 9.59115 485.758 10.0859C485.919 10.5807 486.031 11.1406 486.094 11.7656V12.4844C486.036 13.1042 485.924 13.6615 485.758 14.1562C485.596 14.651 485.375 15.0729 485.094 15.4219C484.818 15.7708 484.479 16.0391 484.078 16.2266C483.677 16.4089 483.208 16.5 482.672 16.5C482.167 16.5 481.708 16.3932 481.297 16.1797C480.891 15.9661 480.542 15.6667 480.25 15.2812C479.958 14.8958 479.734 14.4427 479.578 13.9219C479.427 13.3958 479.352 12.8255 479.352 12.2109ZM480.797 12.0469V12.2109C480.797 12.6328 480.839 13.0286 480.922 13.3984C481.01 13.7682 481.143 14.0938 481.32 14.375C481.503 14.6562 481.734 14.8776 482.016 15.0391C482.297 15.1953 482.633 15.2734 483.023 15.2734C483.503 15.2734 483.898 15.1719 484.211 14.9688C484.523 14.7656 484.771 14.4974 484.953 14.1641C485.141 13.8307 485.286 13.4688 485.391 13.0781V11.1953C485.333 10.9089 485.245 10.6328 485.125 10.3672C485.01 10.0964 484.859 9.85677 484.672 9.64844C484.49 9.4349 484.263 9.26562 483.992 9.14062C483.721 9.01562 483.404 8.95312 483.039 8.95312C482.643 8.95312 482.302 9.03646 482.016 9.20312C481.734 9.36458 481.503 9.58854 481.32 9.875C481.143 10.1562 481.01 10.4844 480.922 10.8594C480.839 11.2292 480.797 11.625 480.797 12.0469ZM492.188 16.5C491.599 16.5 491.065 16.401 490.586 16.2031C490.112 16 489.703 15.7161 489.359 15.3516C489.021 14.987 488.76 14.5547 488.578 14.0547C488.396 13.5547 488.305 13.0078 488.305 12.4141V12.0859C488.305 11.3984 488.406 10.7865 488.609 10.25C488.812 9.70833 489.089 9.25 489.438 8.875C489.786 8.5 490.182 8.21615 490.625 8.02344C491.068 7.83073 491.526 7.73438 492 7.73438C492.604 7.73438 493.125 7.83854 493.562 8.04688C494.005 8.25521 494.367 8.54688 494.648 8.92188C494.93 9.29167 495.138 9.72917 495.273 10.2344C495.409 10.7344 495.477 11.2812 495.477 11.875V12.5234H489.164V11.3438H494.031V11.2344C494.01 10.8594 493.932 10.4948 493.797 10.1406C493.667 9.78646 493.458 9.49479 493.172 9.26562C492.885 9.03646 492.495 8.92188 492 8.92188C491.672 8.92188 491.37 8.99219 491.094 9.13281C490.818 9.26823 490.581 9.47135 490.383 9.74219C490.185 10.013 490.031 10.3438 489.922 10.7344C489.812 11.125 489.758 11.5755 489.758 12.0859V12.4141C489.758 12.8151 489.812 13.1927 489.922 13.5469C490.036 13.8958 490.201 14.2031 490.414 14.4688C490.633 14.7344 490.896 14.9427 491.203 15.0938C491.516 15.2448 491.87 15.3203 492.266 15.3203C492.776 15.3203 493.208 15.2161 493.562 15.0078C493.917 14.7995 494.227 14.5208 494.492 14.1719L495.367 14.8672C495.185 15.1432 494.953 15.4062 494.672 15.6562C494.391 15.9062 494.044 16.1094 493.633 16.2656C493.227 16.4219 492.745 16.5 492.188 16.5ZM508.25 15.1172V16.3438H502.562V15.1172H508.25ZM502.859 4.96875V16.3438H501.352V4.96875H502.859ZM511.328 7.89062V16.3438H509.875V7.89062H511.328ZM509.766 5.64844C509.766 5.41406 509.836 5.21615 509.977 5.05469C510.122 4.89323 510.336 4.8125 510.617 4.8125C510.893 4.8125 511.104 4.89323 511.25 5.05469C511.401 5.21615 511.477 5.41406 511.477 5.64844C511.477 5.8724 511.401 6.0651 511.25 6.22656C511.104 6.38281 510.893 6.46094 510.617 6.46094C510.336 6.46094 510.122 6.38281 509.977 6.22656C509.836 6.0651 509.766 5.8724 509.766 5.64844ZM517.031 15.3125C517.375 15.3125 517.693 15.2422 517.984 15.1016C518.276 14.9609 518.516 14.7682 518.703 14.5234C518.891 14.2734 518.997 13.9896 519.023 13.6719H520.398C520.372 14.1719 520.203 14.638 519.891 15.0703C519.583 15.4974 519.18 15.8438 518.68 16.1094C518.18 16.3698 517.63 16.5 517.031 16.5C516.396 16.5 515.841 16.388 515.367 16.1641C514.898 15.9401 514.508 15.6328 514.195 15.2422C513.888 14.8516 513.656 14.4036 513.5 13.8984C513.349 13.388 513.273 12.849 513.273 12.2812V11.9531C513.273 11.3854 513.349 10.849 513.5 10.3438C513.656 9.83333 513.888 9.38281 514.195 8.99219C514.508 8.60156 514.898 8.29427 515.367 8.07031C515.841 7.84635 516.396 7.73438 517.031 7.73438C517.693 7.73438 518.271 7.86979 518.766 8.14062C519.26 8.40625 519.648 8.77083 519.93 9.23438C520.216 9.69271 520.372 10.2135 520.398 10.7969H519.023C518.997 10.4479 518.898 10.1328 518.727 9.85156C518.56 9.57031 518.331 9.34635 518.039 9.17969C517.753 9.00781 517.417 8.92188 517.031 8.92188C516.589 8.92188 516.216 9.01042 515.914 9.1875C515.617 9.35938 515.38 9.59375 515.203 9.89062C515.031 10.1823 514.906 10.5078 514.828 10.8672C514.755 11.2214 514.719 11.5833 514.719 11.9531V12.2812C514.719 12.651 514.755 13.0156 514.828 13.375C514.901 13.7344 515.023 14.0599 515.195 14.3516C515.372 14.6432 515.609 14.8776 515.906 15.0547C516.208 15.2266 516.583 15.3125 517.031 15.3125ZM525.531 16.5C524.943 16.5 524.409 16.401 523.93 16.2031C523.456 16 523.047 15.7161 522.703 15.3516C522.365 14.987 522.104 14.5547 521.922 14.0547C521.74 13.5547 521.648 13.0078 521.648 12.4141V12.0859C521.648 11.3984 521.75 10.7865 521.953 10.25C522.156 9.70833 522.432 9.25 522.781 8.875C523.13 8.5 523.526 8.21615 523.969 8.02344C524.411 7.83073 524.87 7.73438 525.344 7.73438C525.948 7.73438 526.469 7.83854 526.906 8.04688C527.349 8.25521 527.711 8.54688 527.992 8.92188C528.273 9.29167 528.482 9.72917 528.617 10.2344C528.753 10.7344 528.82 11.2812 528.82 11.875V12.5234H522.508V11.3438H527.375V11.2344C527.354 10.8594 527.276 10.4948 527.141 10.1406C527.01 9.78646 526.802 9.49479 526.516 9.26562C526.229 9.03646 525.839 8.92188 525.344 8.92188C525.016 8.92188 524.714 8.99219 524.438 9.13281C524.161 9.26823 523.924 9.47135 523.727 9.74219C523.529 10.013 523.375 10.3438 523.266 10.7344C523.156 11.125 523.102 11.5755 523.102 12.0859V12.4141C523.102 12.8151 523.156 13.1927 523.266 13.5469C523.38 13.8958 523.544 14.2031 523.758 14.4688C523.977 14.7344 524.24 14.9427 524.547 15.0938C524.859 15.2448 525.214 15.3203 525.609 15.3203C526.12 15.3203 526.552 15.2161 526.906 15.0078C527.26 14.7995 527.57 14.5208 527.836 14.1719L528.711 14.8672C528.529 15.1432 528.297 15.4062 528.016 15.6562C527.734 15.9062 527.388 16.1094 526.977 16.2656C526.57 16.4219 526.089 16.5 525.531 16.5ZM531.953 9.69531V16.3438H530.508V7.89062H531.875L531.953 9.69531ZM531.609 11.7969L531.008 11.7734C531.013 11.1953 531.099 10.6615 531.266 10.1719C531.432 9.67708 531.667 9.2474 531.969 8.88281C532.271 8.51823 532.63 8.23698 533.047 8.03906C533.469 7.83594 533.935 7.73438 534.445 7.73438C534.862 7.73438 535.237 7.79167 535.57 7.90625C535.904 8.01562 536.188 8.19271 536.422 8.4375C536.661 8.68229 536.844 9 536.969 9.39062C537.094 9.77604 537.156 10.2474 537.156 10.8047V16.3438H535.703V10.7891C535.703 10.3464 535.638 9.99219 535.508 9.72656C535.378 9.45573 535.188 9.26042 534.938 9.14062C534.688 9.01562 534.38 8.95312 534.016 8.95312C533.656 8.95312 533.328 9.02865 533.031 9.17969C532.74 9.33073 532.487 9.53906 532.273 9.80469C532.065 10.0703 531.901 10.375 531.781 10.7188C531.667 11.0573 531.609 11.4167 531.609 11.7969ZM544.273 14.1016C544.273 13.8932 544.227 13.7005 544.133 13.5234C544.044 13.3411 543.859 13.1771 543.578 13.0312C543.302 12.8802 542.885 12.75 542.328 12.6406C541.859 12.5417 541.435 12.4245 541.055 12.2891C540.68 12.1536 540.359 11.9896 540.094 11.7969C539.833 11.6042 539.633 11.3776 539.492 11.1172C539.352 10.8568 539.281 10.5521 539.281 10.2031C539.281 9.86979 539.354 9.55469 539.5 9.25781C539.651 8.96094 539.862 8.69792 540.133 8.46875C540.409 8.23958 540.74 8.0599 541.125 7.92969C541.51 7.79948 541.94 7.73438 542.414 7.73438C543.091 7.73438 543.669 7.85417 544.148 8.09375C544.628 8.33333 544.995 8.65365 545.25 9.05469C545.505 9.45052 545.633 9.89062 545.633 10.375H544.188C544.188 10.1406 544.117 9.91406 543.977 9.69531C543.841 9.47135 543.641 9.28646 543.375 9.14062C543.115 8.99479 542.794 8.92188 542.414 8.92188C542.013 8.92188 541.688 8.98438 541.438 9.10938C541.193 9.22917 541.013 9.38281 540.898 9.57031C540.789 9.75781 540.734 9.95573 540.734 10.1641C540.734 10.3203 540.76 10.4609 540.812 10.5859C540.87 10.7057 540.969 10.8177 541.109 10.9219C541.25 11.0208 541.448 11.1146 541.703 11.2031C541.958 11.2917 542.284 11.3802 542.68 11.4688C543.372 11.625 543.943 11.8125 544.391 12.0312C544.839 12.25 545.172 12.5182 545.391 12.8359C545.609 13.1536 545.719 13.5391 545.719 13.9922C545.719 14.362 545.641 14.7005 545.484 15.0078C545.333 15.3151 545.112 15.5807 544.82 15.8047C544.534 16.0234 544.19 16.1953 543.789 16.3203C543.393 16.4401 542.948 16.5 542.453 16.5C541.708 16.5 541.078 16.3672 540.562 16.1016C540.047 15.8359 539.656 15.4922 539.391 15.0703C539.125 14.6484 538.992 14.2031 538.992 13.7344H540.445C540.466 14.1302 540.581 14.4453 540.789 14.6797C540.997 14.9089 541.253 15.0729 541.555 15.1719C541.857 15.2656 542.156 15.3125 542.453 15.3125C542.849 15.3125 543.18 15.2604 543.445 15.1562C543.716 15.0521 543.922 14.9089 544.062 14.7266C544.203 14.5443 544.273 14.3359 544.273 14.1016ZM551.125 16.5C550.536 16.5 550.003 16.401 549.523 16.2031C549.049 16 548.641 15.7161 548.297 15.3516C547.958 14.987 547.698 14.5547 547.516 14.0547C547.333 13.5547 547.242 13.0078 547.242 12.4141V12.0859C547.242 11.3984 547.344 10.7865 547.547 10.25C547.75 9.70833 548.026 9.25 548.375 8.875C548.724 8.5 549.12 8.21615 549.562 8.02344C550.005 7.83073 550.464 7.73438 550.938 7.73438C551.542 7.73438 552.062 7.83854 552.5 8.04688C552.943 8.25521 553.305 8.54688 553.586 8.92188C553.867 9.29167 554.076 9.72917 554.211 10.2344C554.346 10.7344 554.414 11.2812 554.414 11.875V12.5234H548.102V11.3438H552.969V11.2344C552.948 10.8594 552.87 10.4948 552.734 10.1406C552.604 9.78646 552.396 9.49479 552.109 9.26562C551.823 9.03646 551.432 8.92188 550.938 8.92188C550.609 8.92188 550.307 8.99219 550.031 9.13281C549.755 9.26823 549.518 9.47135 549.32 9.74219C549.122 10.013 548.969 10.3438 548.859 10.7344C548.75 11.125 548.695 11.5755 548.695 12.0859V12.4141C548.695 12.8151 548.75 13.1927 548.859 13.5469C548.974 13.8958 549.138 14.2031 549.352 14.4688C549.57 14.7344 549.833 14.9427 550.141 15.0938C550.453 15.2448 550.807 15.3203 551.203 15.3203C551.714 15.3203 552.146 15.2161 552.5 15.0078C552.854 14.7995 553.164 14.5208 553.43 14.1719L554.305 14.8672C554.122 15.1432 553.891 15.4062 553.609 15.6562C553.328 15.9062 552.982 16.1094 552.57 16.2656C552.164 16.4219 551.682 16.5 551.125 16.5ZM561.906 4.96875V16.3438H560.398V4.96875H561.906ZM565.875 9.69531V16.3438H564.43V7.89062H565.797L565.875 9.69531ZM565.531 11.7969L564.93 11.7734C564.935 11.1953 565.021 10.6615 565.188 10.1719C565.354 9.67708 565.589 9.2474 565.891 8.88281C566.193 8.51823 566.552 8.23698 566.969 8.03906C567.391 7.83594 567.857 7.73438 568.367 7.73438C568.784 7.73438 569.159 7.79167 569.492 7.90625C569.826 8.01562 570.109 8.19271 570.344 8.4375C570.583 8.68229 570.766 9 570.891 9.39062C571.016 9.77604 571.078 10.2474 571.078 10.8047V16.3438H569.625V10.7891C569.625 10.3464 569.56 9.99219 569.43 9.72656C569.299 9.45573 569.109 9.26042 568.859 9.14062C568.609 9.01562 568.302 8.95312 567.938 8.95312C567.578 8.95312 567.25 9.02865 566.953 9.17969C566.661 9.33073 566.409 9.53906 566.195 9.80469C565.987 10.0703 565.823 10.375 565.703 10.7188C565.589 11.0573 565.531 11.4167 565.531 11.7969ZM575.43 16.3438H573.984V7C573.984 6.39062 574.094 5.8776 574.312 5.46094C574.536 5.03906 574.857 4.72135 575.273 4.50781C575.69 4.28906 576.185 4.17969 576.758 4.17969C576.924 4.17969 577.091 4.1901 577.258 4.21094C577.43 4.23177 577.596 4.26302 577.758 4.30469L577.68 5.48438C577.57 5.45833 577.445 5.4401 577.305 5.42969C577.169 5.41927 577.034 5.41406 576.898 5.41406C576.591 5.41406 576.326 5.47656 576.102 5.60156C575.883 5.72135 575.716 5.89844 575.602 6.13281C575.487 6.36719 575.43 6.65625 575.43 7V16.3438ZM577.227 7.89062V9H572.648V7.89062H577.227ZM578.453 12.2109V12.0312C578.453 11.4219 578.542 10.8568 578.719 10.3359C578.896 9.8099 579.151 9.35417 579.484 8.96875C579.818 8.57812 580.221 8.27604 580.695 8.0625C581.169 7.84375 581.701 7.73438 582.289 7.73438C582.883 7.73438 583.417 7.84375 583.891 8.0625C584.37 8.27604 584.776 8.57812 585.109 8.96875C585.448 9.35417 585.706 9.8099 585.883 10.3359C586.06 10.8568 586.148 11.4219 586.148 12.0312V12.2109C586.148 12.8203 586.06 13.3854 585.883 13.9062C585.706 14.4271 585.448 14.8828 585.109 15.2734C584.776 15.6589 584.372 15.9609 583.898 16.1797C583.43 16.3932 582.898 16.5 582.305 16.5C581.711 16.5 581.177 16.3932 580.703 16.1797C580.229 15.9609 579.823 15.6589 579.484 15.2734C579.151 14.8828 578.896 14.4271 578.719 13.9062C578.542 13.3854 578.453 12.8203 578.453 12.2109ZM579.898 12.0312V12.2109C579.898 12.6328 579.948 13.0312 580.047 13.4062C580.146 13.776 580.294 14.1042 580.492 14.3906C580.695 14.6771 580.948 14.9036 581.25 15.0703C581.552 15.2318 581.904 15.3125 582.305 15.3125C582.701 15.3125 583.047 15.2318 583.344 15.0703C583.646 14.9036 583.896 14.6771 584.094 14.3906C584.292 14.1042 584.44 13.776 584.539 13.4062C584.643 13.0312 584.695 12.6328 584.695 12.2109V12.0312C584.695 11.6146 584.643 11.2214 584.539 10.8516C584.44 10.4766 584.289 10.1458 584.086 9.85938C583.888 9.56771 583.638 9.33854 583.336 9.17188C583.039 9.00521 582.69 8.92188 582.289 8.92188C581.893 8.92188 581.544 9.00521 581.242 9.17188C580.945 9.33854 580.695 9.56771 580.492 9.85938C580.294 10.1458 580.146 10.4766 580.047 10.8516C579.948 11.2214 579.898 11.6146 579.898 12.0312Z" fill="#8A95AD"/>
<path d="M617.438 4.96875V16.3438H615.93V4.96875H617.438ZM621.406 9.69531V16.3438H619.961V7.89062H621.328L621.406 9.69531ZM621.062 11.7969L620.461 11.7734C620.466 11.1953 620.552 10.6615 620.719 10.1719C620.885 9.67708 621.12 9.2474 621.422 8.88281C621.724 8.51823 622.083 8.23698 622.5 8.03906C622.922 7.83594 623.388 7.73438 623.898 7.73438C624.315 7.73438 624.69 7.79167 625.023 7.90625C625.357 8.01562 625.641 8.19271 625.875 8.4375C626.115 8.68229 626.297 9 626.422 9.39062C626.547 9.77604 626.609 10.2474 626.609 10.8047V16.3438H625.156V10.7891C625.156 10.3464 625.091 9.99219 624.961 9.72656C624.831 9.45573 624.641 9.26042 624.391 9.14062C624.141 9.01562 623.833 8.95312 623.469 8.95312C623.109 8.95312 622.781 9.02865 622.484 9.17969C622.193 9.33073 621.94 9.53906 621.727 9.80469C621.518 10.0703 621.354 10.375 621.234 10.7188C621.12 11.0573 621.062 11.4167 621.062 11.7969ZM633.727 14.1016C633.727 13.8932 633.68 13.7005 633.586 13.5234C633.497 13.3411 633.312 13.1771 633.031 13.0312C632.755 12.8802 632.339 12.75 631.781 12.6406C631.312 12.5417 630.888 12.4245 630.508 12.2891C630.133 12.1536 629.812 11.9896 629.547 11.7969C629.286 11.6042 629.086 11.3776 628.945 11.1172C628.805 10.8568 628.734 10.5521 628.734 10.2031C628.734 9.86979 628.807 9.55469 628.953 9.25781C629.104 8.96094 629.315 8.69792 629.586 8.46875C629.862 8.23958 630.193 8.0599 630.578 7.92969C630.964 7.79948 631.393 7.73438 631.867 7.73438C632.544 7.73438 633.122 7.85417 633.602 8.09375C634.081 8.33333 634.448 8.65365 634.703 9.05469C634.958 9.45052 635.086 9.89062 635.086 10.375H633.641C633.641 10.1406 633.57 9.91406 633.43 9.69531C633.294 9.47135 633.094 9.28646 632.828 9.14062C632.568 8.99479 632.247 8.92188 631.867 8.92188C631.466 8.92188 631.141 8.98438 630.891 9.10938C630.646 9.22917 630.466 9.38281 630.352 9.57031C630.242 9.75781 630.188 9.95573 630.188 10.1641C630.188 10.3203 630.214 10.4609 630.266 10.5859C630.323 10.7057 630.422 10.8177 630.562 10.9219C630.703 11.0208 630.901 11.1146 631.156 11.2031C631.411 11.2917 631.737 11.3802 632.133 11.4688C632.826 11.625 633.396 11.8125 633.844 12.0312C634.292 12.25 634.625 12.5182 634.844 12.8359C635.062 13.1536 635.172 13.5391 635.172 13.9922C635.172 14.362 635.094 14.7005 634.938 15.0078C634.786 15.3151 634.565 15.5807 634.273 15.8047C633.987 16.0234 633.643 16.1953 633.242 16.3203C632.846 16.4401 632.401 16.5 631.906 16.5C631.161 16.5 630.531 16.3672 630.016 16.1016C629.5 15.8359 629.109 15.4922 628.844 15.0703C628.578 14.6484 628.445 14.2031 628.445 13.7344H629.898C629.919 14.1302 630.034 14.4453 630.242 14.6797C630.451 14.9089 630.706 15.0729 631.008 15.1719C631.31 15.2656 631.609 15.3125 631.906 15.3125C632.302 15.3125 632.633 15.2604 632.898 15.1562C633.169 15.0521 633.375 14.9089 633.516 14.7266C633.656 14.5443 633.727 14.3359 633.727 14.1016ZM640.609 7.89062V9H636.039V7.89062H640.609ZM637.586 5.83594H639.031V14.25C639.031 14.5365 639.076 14.7526 639.164 14.8984C639.253 15.0443 639.367 15.1406 639.508 15.1875C639.648 15.2344 639.799 15.2578 639.961 15.2578C640.081 15.2578 640.206 15.2474 640.336 15.2266C640.471 15.2005 640.573 15.1797 640.641 15.1641L640.648 16.3438C640.534 16.3802 640.383 16.4141 640.195 16.4453C640.013 16.4818 639.792 16.5 639.531 16.5C639.177 16.5 638.852 16.4297 638.555 16.2891C638.258 16.1484 638.021 15.9141 637.844 15.5859C637.672 15.2526 637.586 14.8047 637.586 14.2422V5.83594ZM643.75 9.21875V16.3438H642.305V7.89062H643.711L643.75 9.21875ZM646.391 7.84375L646.383 9.1875C646.263 9.16146 646.148 9.14583 646.039 9.14062C645.935 9.13021 645.815 9.125 645.68 9.125C645.346 9.125 645.052 9.17708 644.797 9.28125C644.542 9.38542 644.326 9.53125 644.148 9.71875C643.971 9.90625 643.831 10.1302 643.727 10.3906C643.628 10.6458 643.562 10.9271 643.531 11.2344L643.125 11.4688C643.125 10.9583 643.174 10.4792 643.273 10.0312C643.378 9.58333 643.536 9.1875 643.75 8.84375C643.964 8.49479 644.234 8.22396 644.562 8.03125C644.896 7.83333 645.292 7.73438 645.75 7.73438C645.854 7.73438 645.974 7.7474 646.109 7.77344C646.245 7.79427 646.339 7.81771 646.391 7.84375ZM652.898 14.3906V7.89062H654.352V16.3438H652.969L652.898 14.3906ZM653.172 12.6094L653.773 12.5938C653.773 13.1562 653.714 13.6771 653.594 14.1562C653.479 14.6302 653.292 15.0417 653.031 15.3906C652.771 15.7396 652.43 16.013 652.008 16.2109C651.586 16.4036 651.073 16.5 650.469 16.5C650.057 16.5 649.68 16.4401 649.336 16.3203C648.997 16.2005 648.706 16.0156 648.461 15.7656C648.216 15.5156 648.026 15.1901 647.891 14.7891C647.76 14.388 647.695 13.9062 647.695 13.3438V7.89062H649.141V13.3594C649.141 13.7396 649.182 14.0547 649.266 14.3047C649.354 14.5495 649.471 14.7448 649.617 14.8906C649.768 15.0312 649.935 15.1302 650.117 15.1875C650.305 15.2448 650.497 15.2734 650.695 15.2734C651.31 15.2734 651.797 15.1562 652.156 14.9219C652.516 14.6823 652.773 14.362 652.93 13.9609C653.091 13.5547 653.172 13.1042 653.172 12.6094ZM659.938 15.3125C660.281 15.3125 660.599 15.2422 660.891 15.1016C661.182 14.9609 661.422 14.7682 661.609 14.5234C661.797 14.2734 661.904 13.9896 661.93 13.6719H663.305C663.279 14.1719 663.109 14.638 662.797 15.0703C662.49 15.4974 662.086 15.8438 661.586 16.1094C661.086 16.3698 660.536 16.5 659.938 16.5C659.302 16.5 658.747 16.388 658.273 16.1641C657.805 15.9401 657.414 15.6328 657.102 15.2422C656.794 14.8516 656.562 14.4036 656.406 13.8984C656.255 13.388 656.18 12.849 656.18 12.2812V11.9531C656.18 11.3854 656.255 10.849 656.406 10.3438C656.562 9.83333 656.794 9.38281 657.102 8.99219C657.414 8.60156 657.805 8.29427 658.273 8.07031C658.747 7.84635 659.302 7.73438 659.938 7.73438C660.599 7.73438 661.177 7.86979 661.672 8.14062C662.167 8.40625 662.555 8.77083 662.836 9.23438C663.122 9.69271 663.279 10.2135 663.305 10.7969H661.93C661.904 10.4479 661.805 10.1328 661.633 9.85156C661.466 9.57031 661.237 9.34635 660.945 9.17969C660.659 9.00781 660.323 8.92188 659.938 8.92188C659.495 8.92188 659.122 9.01042 658.82 9.1875C658.523 9.35938 658.286 9.59375 658.109 9.89062C657.938 10.1823 657.812 10.5078 657.734 10.8672C657.661 11.2214 657.625 11.5833 657.625 11.9531V12.2812C657.625 12.651 657.661 13.0156 657.734 13.375C657.807 13.7344 657.93 14.0599 658.102 14.3516C658.279 14.6432 658.516 14.8776 658.812 15.0547C659.115 15.2266 659.49 15.3125 659.938 15.3125ZM668.469 7.89062V9H663.898V7.89062H668.469ZM665.445 5.83594H666.891V14.25C666.891 14.5365 666.935 14.7526 667.023 14.8984C667.112 15.0443 667.227 15.1406 667.367 15.1875C667.508 15.2344 667.659 15.2578 667.82 15.2578C667.94 15.2578 668.065 15.2474 668.195 15.2266C668.331 15.2005 668.432 15.1797 668.5 15.1641L668.508 16.3438C668.393 16.3802 668.242 16.4141 668.055 16.4453C667.872 16.4818 667.651 16.5 667.391 16.5C667.036 16.5 666.711 16.4297 666.414 16.2891C666.117 16.1484 665.88 15.9141 665.703 15.5859C665.531 15.2526 665.445 14.8047 665.445 14.2422V5.83594ZM671.734 7.89062V16.3438H670.281V7.89062H671.734ZM670.172 5.64844C670.172 5.41406 670.242 5.21615 670.383 5.05469C670.529 4.89323 670.742 4.8125 671.023 4.8125C671.299 4.8125 671.51 4.89323 671.656 5.05469C671.807 5.21615 671.883 5.41406 671.883 5.64844C671.883 5.8724 671.807 6.0651 671.656 6.22656C671.51 6.38281 671.299 6.46094 671.023 6.46094C670.742 6.46094 670.529 6.38281 670.383 6.22656C670.242 6.0651 670.172 5.8724 670.172 5.64844ZM673.672 12.2109V12.0312C673.672 11.4219 673.76 10.8568 673.938 10.3359C674.115 9.8099 674.37 9.35417 674.703 8.96875C675.036 8.57812 675.44 8.27604 675.914 8.0625C676.388 7.84375 676.919 7.73438 677.508 7.73438C678.102 7.73438 678.635 7.84375 679.109 8.0625C679.589 8.27604 679.995 8.57812 680.328 8.96875C680.667 9.35417 680.924 9.8099 681.102 10.3359C681.279 10.8568 681.367 11.4219 681.367 12.0312V12.2109C681.367 12.8203 681.279 13.3854 681.102 13.9062C680.924 14.4271 680.667 14.8828 680.328 15.2734C679.995 15.6589 679.591 15.9609 679.117 16.1797C678.648 16.3932 678.117 16.5 677.523 16.5C676.93 16.5 676.396 16.3932 675.922 16.1797C675.448 15.9609 675.042 15.6589 674.703 15.2734C674.37 14.8828 674.115 14.4271 673.938 13.9062C673.76 13.3854 673.672 12.8203 673.672 12.2109ZM675.117 12.0312V12.2109C675.117 12.6328 675.167 13.0312 675.266 13.4062C675.365 13.776 675.513 14.1042 675.711 14.3906C675.914 14.6771 676.167 14.9036 676.469 15.0703C676.771 15.2318 677.122 15.3125 677.523 15.3125C677.919 15.3125 678.266 15.2318 678.562 15.0703C678.865 14.9036 679.115 14.6771 679.312 14.3906C679.51 14.1042 679.659 13.776 679.758 13.4062C679.862 13.0312 679.914 12.6328 679.914 12.2109V12.0312C679.914 11.6146 679.862 11.2214 679.758 10.8516C679.659 10.4766 679.508 10.1458 679.305 9.85938C679.107 9.56771 678.857 9.33854 678.555 9.17188C678.258 9.00521 677.909 8.92188 677.508 8.92188C677.112 8.92188 676.763 9.00521 676.461 9.17188C676.164 9.33854 675.914 9.56771 675.711 9.85938C675.513 10.1458 675.365 10.4766 675.266 10.8516C675.167 11.2214 675.117 11.6146 675.117 12.0312ZM684.625 9.69531V16.3438H683.18V7.89062H684.547L684.625 9.69531ZM684.281 11.7969L683.68 11.7734C683.685 11.1953 683.771 10.6615 683.938 10.1719C684.104 9.67708 684.339 9.2474 684.641 8.88281C684.943 8.51823 685.302 8.23698 685.719 8.03906C686.141 7.83594 686.607 7.73438 687.117 7.73438C687.534 7.73438 687.909 7.79167 688.242 7.90625C688.576 8.01562 688.859 8.19271 689.094 8.4375C689.333 8.68229 689.516 9 689.641 9.39062C689.766 9.77604 689.828 10.2474 689.828 10.8047V16.3438H688.375V10.7891C688.375 10.3464 688.31 9.99219 688.18 9.72656C688.049 9.45573 687.859 9.26042 687.609 9.14062C687.359 9.01562 687.052 8.95312 686.688 8.95312C686.328 8.95312 686 9.02865 685.703 9.17969C685.411 9.33073 685.159 9.53906 684.945 9.80469C684.737 10.0703 684.573 10.375 684.453 10.7188C684.339 11.0573 684.281 11.4167 684.281 11.7969ZM696.945 14.1016C696.945 13.8932 696.898 13.7005 696.805 13.5234C696.716 13.3411 696.531 13.1771 696.25 13.0312C695.974 12.8802 695.557 12.75 695 12.6406C694.531 12.5417 694.107 12.4245 693.727 12.2891C693.352 12.1536 693.031 11.9896 692.766 11.7969C692.505 11.6042 692.305 11.3776 692.164 11.1172C692.023 10.8568 691.953 10.5521 691.953 10.2031C691.953 9.86979 692.026 9.55469 692.172 9.25781C692.323 8.96094 692.534 8.69792 692.805 8.46875C693.081 8.23958 693.411 8.0599 693.797 7.92969C694.182 7.79948 694.612 7.73438 695.086 7.73438C695.763 7.73438 696.341 7.85417 696.82 8.09375C697.299 8.33333 697.667 8.65365 697.922 9.05469C698.177 9.45052 698.305 9.89062 698.305 10.375H696.859C696.859 10.1406 696.789 9.91406 696.648 9.69531C696.513 9.47135 696.312 9.28646 696.047 9.14062C695.786 8.99479 695.466 8.92188 695.086 8.92188C694.685 8.92188 694.359 8.98438 694.109 9.10938C693.865 9.22917 693.685 9.38281 693.57 9.57031C693.461 9.75781 693.406 9.95573 693.406 10.1641C693.406 10.3203 693.432 10.4609 693.484 10.5859C693.542 10.7057 693.641 10.8177 693.781 10.9219C693.922 11.0208 694.12 11.1146 694.375 11.2031C694.63 11.2917 694.956 11.3802 695.352 11.4688C696.044 11.625 696.615 11.8125 697.062 12.0312C697.51 12.25 697.844 12.5182 698.062 12.8359C698.281 13.1536 698.391 13.5391 698.391 13.9922C698.391 14.362 698.312 14.7005 698.156 15.0078C698.005 15.3151 697.784 15.5807 697.492 15.8047C697.206 16.0234 696.862 16.1953 696.461 16.3203C696.065 16.4401 695.62 16.5 695.125 16.5C694.38 16.5 693.75 16.3672 693.234 16.1016C692.719 15.8359 692.328 15.4922 692.062 15.0703C691.797 14.6484 691.664 14.2031 691.664 13.7344H693.117C693.138 14.1302 693.253 14.4453 693.461 14.6797C693.669 14.9089 693.924 15.0729 694.227 15.1719C694.529 15.2656 694.828 15.3125 695.125 15.3125C695.521 15.3125 695.852 15.2604 696.117 15.1562C696.388 15.0521 696.594 14.9089 696.734 14.7266C696.875 14.5443 696.945 14.3359 696.945 14.1016Z" fill="#8A95AD"/>
<path d="M735.688 12.7266H737.188C737.109 13.4453 736.904 14.0885 736.57 14.6562C736.237 15.224 735.766 15.6745 735.156 16.0078C734.547 16.3359 733.786 16.5 732.875 16.5C732.208 16.5 731.602 16.375 731.055 16.125C730.513 15.875 730.047 15.5208 729.656 15.0625C729.266 14.599 728.964 14.0443 728.75 13.3984C728.542 12.7474 728.438 12.0234 728.438 11.2266V10.0938C728.438 9.29688 728.542 8.57552 728.75 7.92969C728.964 7.27865 729.268 6.72135 729.664 6.25781C730.065 5.79427 730.547 5.4375 731.109 5.1875C731.672 4.9375 732.305 4.8125 733.008 4.8125C733.867 4.8125 734.594 4.97396 735.188 5.29688C735.781 5.61979 736.242 6.06771 736.57 6.64062C736.904 7.20833 737.109 7.86719 737.188 8.61719H735.688C735.615 8.08594 735.479 7.63021 735.281 7.25C735.083 6.86458 734.802 6.56771 734.438 6.35938C734.073 6.15104 733.596 6.04688 733.008 6.04688C732.503 6.04688 732.057 6.14323 731.672 6.33594C731.292 6.52865 730.971 6.80208 730.711 7.15625C730.456 7.51042 730.263 7.9349 730.133 8.42969C730.003 8.92448 729.938 9.47396 729.938 10.0781V11.2266C729.938 11.7839 729.995 12.3073 730.109 12.7969C730.229 13.2865 730.409 13.7161 730.648 14.0859C730.888 14.4557 731.193 14.7474 731.562 14.9609C731.932 15.1693 732.37 15.2734 732.875 15.2734C733.516 15.2734 734.026 15.1719 734.406 14.9688C734.786 14.7656 735.073 14.474 735.266 14.0938C735.464 13.7135 735.604 13.2578 735.688 12.7266ZM740.469 4.34375V16.3438H739.023V4.34375H740.469ZM740.125 11.7969L739.523 11.7734C739.529 11.1953 739.615 10.6615 739.781 10.1719C739.948 9.67708 740.182 9.2474 740.484 8.88281C740.786 8.51823 741.146 8.23698 741.562 8.03906C741.984 7.83594 742.451 7.73438 742.961 7.73438C743.378 7.73438 743.753 7.79167 744.086 7.90625C744.419 8.01562 744.703 8.19271 744.938 8.4375C745.177 8.68229 745.359 9 745.484 9.39062C745.609 9.77604 745.672 10.2474 745.672 10.8047V16.3438H744.219V10.7891C744.219 10.3464 744.154 9.99219 744.023 9.72656C743.893 9.45573 743.703 9.26042 743.453 9.14062C743.203 9.01562 742.896 8.95312 742.531 8.95312C742.172 8.95312 741.844 9.02865 741.547 9.17969C741.255 9.33073 741.003 9.53906 740.789 9.80469C740.581 10.0703 740.417 10.375 740.297 10.7188C740.182 11.0573 740.125 11.4167 740.125 11.7969ZM752.82 14.8984V10.5469C752.82 10.2135 752.753 9.92448 752.617 9.67969C752.487 9.42969 752.289 9.23698 752.023 9.10156C751.758 8.96615 751.43 8.89844 751.039 8.89844C750.674 8.89844 750.354 8.96094 750.078 9.08594C749.807 9.21094 749.594 9.375 749.438 9.57812C749.286 9.78125 749.211 10 749.211 10.2344H747.766C747.766 9.93229 747.844 9.63281 748 9.33594C748.156 9.03906 748.38 8.77083 748.672 8.53125C748.969 8.28646 749.323 8.09375 749.734 7.95312C750.151 7.80729 750.615 7.73438 751.125 7.73438C751.74 7.73438 752.281 7.83854 752.75 8.04688C753.224 8.25521 753.594 8.57031 753.859 8.99219C754.13 9.40885 754.266 9.93229 754.266 10.5625V14.5C754.266 14.7812 754.289 15.0807 754.336 15.3984C754.388 15.7161 754.464 15.9896 754.562 16.2188V16.3438H753.055C752.982 16.1771 752.924 15.9557 752.883 15.6797C752.841 15.3984 752.82 15.138 752.82 14.8984ZM753.07 11.2188L753.086 12.2344H751.625C751.214 12.2344 750.846 12.2682 750.523 12.3359C750.201 12.3984 749.93 12.4948 749.711 12.625C749.492 12.7552 749.326 12.9193 749.211 13.1172C749.096 13.3099 749.039 13.5365 749.039 13.7969C749.039 14.0625 749.099 14.3047 749.219 14.5234C749.339 14.7422 749.518 14.9167 749.758 15.0469C750.003 15.1719 750.302 15.2344 750.656 15.2344C751.099 15.2344 751.49 15.1406 751.828 14.9531C752.167 14.7656 752.435 14.5365 752.633 14.2656C752.836 13.9948 752.945 13.7318 752.961 13.4766L753.578 14.1719C753.542 14.3906 753.443 14.6328 753.281 14.8984C753.12 15.1641 752.904 15.4193 752.633 15.6641C752.367 15.9036 752.049 16.1042 751.68 16.2656C751.315 16.4219 750.904 16.5 750.445 16.5C749.872 16.5 749.37 16.388 748.938 16.1641C748.51 15.9401 748.177 15.6406 747.938 15.2656C747.703 14.8854 747.586 14.4609 747.586 13.9922C747.586 13.5391 747.674 13.1406 747.852 12.7969C748.029 12.4479 748.284 12.1589 748.617 11.9297C748.951 11.6953 749.352 11.5182 749.82 11.3984C750.289 11.2786 750.812 11.2188 751.391 11.2188H753.07ZM757.984 9.69531V16.3438H756.539V7.89062H757.906L757.984 9.69531ZM757.641 11.7969L757.039 11.7734C757.044 11.1953 757.13 10.6615 757.297 10.1719C757.464 9.67708 757.698 9.2474 758 8.88281C758.302 8.51823 758.661 8.23698 759.078 8.03906C759.5 7.83594 759.966 7.73438 760.477 7.73438C760.893 7.73438 761.268 7.79167 761.602 7.90625C761.935 8.01562 762.219 8.19271 762.453 8.4375C762.693 8.68229 762.875 9 763 9.39062C763.125 9.77604 763.188 10.2474 763.188 10.8047V16.3438H761.734V10.7891C761.734 10.3464 761.669 9.99219 761.539 9.72656C761.409 9.45573 761.219 9.26042 760.969 9.14062C760.719 9.01562 760.411 8.95312 760.047 8.95312C759.688 8.95312 759.359 9.02865 759.062 9.17969C758.771 9.33073 758.518 9.53906 758.305 9.80469C758.096 10.0703 757.932 10.375 757.812 10.7188C757.698 11.0573 757.641 11.4167 757.641 11.7969ZM770.859 7.89062H772.172V16.1641C772.172 16.9089 772.021 17.5443 771.719 18.0703C771.417 18.5964 770.995 18.9948 770.453 19.2656C769.917 19.5417 769.297 19.6797 768.594 19.6797C768.302 19.6797 767.958 19.6328 767.562 19.5391C767.172 19.4505 766.786 19.2969 766.406 19.0781C766.031 18.8646 765.716 18.5755 765.461 18.2109L766.219 17.3516C766.573 17.7786 766.943 18.0755 767.328 18.2422C767.719 18.4089 768.104 18.4922 768.484 18.4922C768.943 18.4922 769.339 18.4062 769.672 18.2344C770.005 18.0625 770.263 17.8073 770.445 17.4688C770.633 17.1354 770.727 16.724 770.727 16.2344V9.75L770.859 7.89062ZM765.039 12.2109V12.0469C765.039 11.401 765.115 10.8151 765.266 10.2891C765.422 9.75781 765.643 9.30208 765.93 8.92188C766.221 8.54167 766.573 8.25 766.984 8.04688C767.396 7.83854 767.859 7.73438 768.375 7.73438C768.906 7.73438 769.37 7.82812 769.766 8.01562C770.167 8.19792 770.505 8.46615 770.781 8.82031C771.062 9.16927 771.284 9.59115 771.445 10.0859C771.607 10.5807 771.719 11.1406 771.781 11.7656V12.4844C771.724 13.1042 771.612 13.6615 771.445 14.1562C771.284 14.651 771.062 15.0729 770.781 15.4219C770.505 15.7708 770.167 16.0391 769.766 16.2266C769.365 16.4089 768.896 16.5 768.359 16.5C767.854 16.5 767.396 16.3932 766.984 16.1797C766.578 15.9661 766.229 15.6667 765.938 15.2812C765.646 14.8958 765.422 14.4427 765.266 13.9219C765.115 13.3958 765.039 12.8255 765.039 12.2109ZM766.484 12.0469V12.2109C766.484 12.6328 766.526 13.0286 766.609 13.3984C766.698 13.7682 766.831 14.0938 767.008 14.375C767.19 14.6562 767.422 14.8776 767.703 15.0391C767.984 15.1953 768.32 15.2734 768.711 15.2734C769.19 15.2734 769.586 15.1719 769.898 14.9688C770.211 14.7656 770.458 14.4974 770.641 14.1641C770.828 13.8307 770.974 13.4688 771.078 13.0781V11.1953C771.021 10.9089 770.932 10.6328 770.812 10.3672C770.698 10.0964 770.547 9.85677 770.359 9.64844C770.177 9.4349 769.951 9.26562 769.68 9.14062C769.409 9.01562 769.091 8.95312 768.727 8.95312C768.331 8.95312 767.99 9.03646 767.703 9.20312C767.422 9.36458 767.19 9.58854 767.008 9.875C766.831 10.1562 766.698 10.4844 766.609 10.8594C766.526 11.2292 766.484 11.625 766.484 12.0469ZM777.875 16.5C777.286 16.5 776.753 16.401 776.273 16.2031C775.799 16 775.391 15.7161 775.047 15.3516C774.708 14.987 774.448 14.5547 774.266 14.0547C774.083 13.5547 773.992 13.0078 773.992 12.4141V12.0859C773.992 11.3984 774.094 10.7865 774.297 10.25C774.5 9.70833 774.776 9.25 775.125 8.875C775.474 8.5 775.87 8.21615 776.312 8.02344C776.755 7.83073 777.214 7.73438 777.688 7.73438C778.292 7.73438 778.812 7.83854 779.25 8.04688C779.693 8.25521 780.055 8.54688 780.336 8.92188C780.617 9.29167 780.826 9.72917 780.961 10.2344C781.096 10.7344 781.164 11.2812 781.164 11.875V12.5234H774.852V11.3438H779.719V11.2344C779.698 10.8594 779.62 10.4948 779.484 10.1406C779.354 9.78646 779.146 9.49479 778.859 9.26562C778.573 9.03646 778.182 8.92188 777.688 8.92188C777.359 8.92188 777.057 8.99219 776.781 9.13281C776.505 9.26823 776.268 9.47135 776.07 9.74219C775.872 10.013 775.719 10.3438 775.609 10.7344C775.5 11.125 775.445 11.5755 775.445 12.0859V12.4141C775.445 12.8151 775.5 13.1927 775.609 13.5469C775.724 13.8958 775.888 14.2031 776.102 14.4688C776.32 14.7344 776.583 14.9427 776.891 15.0938C777.203 15.2448 777.557 15.3203 777.953 15.3203C778.464 15.3203 778.896 15.2161 779.25 15.0078C779.604 14.7995 779.914 14.5208 780.18 14.1719L781.055 14.8672C780.872 15.1432 780.641 15.4062 780.359 15.6562C780.078 15.9062 779.732 16.1094 779.32 16.2656C778.914 16.4219 778.432 16.5 777.875 16.5ZM784.422 4.34375V16.3438H782.969V4.34375H784.422ZM786.359 12.2109V12.0312C786.359 11.4219 786.448 10.8568 786.625 10.3359C786.802 9.8099 787.057 9.35417 787.391 8.96875C787.724 8.57812 788.128 8.27604 788.602 8.0625C789.076 7.84375 789.607 7.73438 790.195 7.73438C790.789 7.73438 791.323 7.84375 791.797 8.0625C792.276 8.27604 792.682 8.57812 793.016 8.96875C793.354 9.35417 793.612 9.8099 793.789 10.3359C793.966 10.8568 794.055 11.4219 794.055 12.0312V12.2109C794.055 12.8203 793.966 13.3854 793.789 13.9062C793.612 14.4271 793.354 14.8828 793.016 15.2734C792.682 15.6589 792.279 15.9609 791.805 16.1797C791.336 16.3932 790.805 16.5 790.211 16.5C789.617 16.5 789.083 16.3932 788.609 16.1797C788.135 15.9609 787.729 15.6589 787.391 15.2734C787.057 14.8828 786.802 14.4271 786.625 13.9062C786.448 13.3854 786.359 12.8203 786.359 12.2109ZM787.805 12.0312V12.2109C787.805 12.6328 787.854 13.0312 787.953 13.4062C788.052 13.776 788.201 14.1042 788.398 14.3906C788.602 14.6771 788.854 14.9036 789.156 15.0703C789.458 15.2318 789.81 15.3125 790.211 15.3125C790.607 15.3125 790.953 15.2318 791.25 15.0703C791.552 14.9036 791.802 14.6771 792 14.3906C792.198 14.1042 792.346 13.776 792.445 13.4062C792.549 13.0312 792.602 12.6328 792.602 12.2109V12.0312C792.602 11.6146 792.549 11.2214 792.445 10.8516C792.346 10.4766 792.195 10.1458 791.992 9.85938C791.794 9.56771 791.544 9.33854 791.242 9.17188C790.945 9.00521 790.596 8.92188 790.195 8.92188C789.799 8.92188 789.451 9.00521 789.148 9.17188C788.852 9.33854 788.602 9.56771 788.398 9.85938C788.201 10.1458 788.052 10.4766 787.953 10.8516C787.854 11.2214 787.805 11.6146 787.805 12.0312ZM801.344 7.89062H802.656V16.1641C802.656 16.9089 802.505 17.5443 802.203 18.0703C801.901 18.5964 801.479 18.9948 800.938 19.2656C800.401 19.5417 799.781 19.6797 799.078 19.6797C798.786 19.6797 798.443 19.6328 798.047 19.5391C797.656 19.4505 797.271 19.2969 796.891 19.0781C796.516 18.8646 796.201 18.5755 795.945 18.2109L796.703 17.3516C797.057 17.7786 797.427 18.0755 797.812 18.2422C798.203 18.4089 798.589 18.4922 798.969 18.4922C799.427 18.4922 799.823 18.4062 800.156 18.2344C800.49 18.0625 800.747 17.8073 800.93 17.4688C801.117 17.1354 801.211 16.724 801.211 16.2344V9.75L801.344 7.89062ZM795.523 12.2109V12.0469C795.523 11.401 795.599 10.8151 795.75 10.2891C795.906 9.75781 796.128 9.30208 796.414 8.92188C796.706 8.54167 797.057 8.25 797.469 8.04688C797.88 7.83854 798.344 7.73438 798.859 7.73438C799.391 7.73438 799.854 7.82812 800.25 8.01562C800.651 8.19792 800.99 8.46615 801.266 8.82031C801.547 9.16927 801.768 9.59115 801.93 10.0859C802.091 10.5807 802.203 11.1406 802.266 11.7656V12.4844C802.208 13.1042 802.096 13.6615 801.93 14.1562C801.768 14.651 801.547 15.0729 801.266 15.4219C800.99 15.7708 800.651 16.0391 800.25 16.2266C799.849 16.4089 799.38 16.5 798.844 16.5C798.339 16.5 797.88 16.3932 797.469 16.1797C797.062 15.9661 796.714 15.6667 796.422 15.2812C796.13 14.8958 795.906 14.4427 795.75 13.9219C795.599 13.3958 795.523 12.8255 795.523 12.2109ZM796.969 12.0469V12.2109C796.969 12.6328 797.01 13.0286 797.094 13.3984C797.182 13.7682 797.315 14.0938 797.492 14.375C797.674 14.6562 797.906 14.8776 798.188 15.0391C798.469 15.1953 798.805 15.2734 799.195 15.2734C799.674 15.2734 800.07 15.1719 800.383 14.9688C800.695 14.7656 800.943 14.4974 801.125 14.1641C801.312 13.8307 801.458 13.4688 801.562 13.0781V11.1953C801.505 10.9089 801.417 10.6328 801.297 10.3672C801.182 10.0964 801.031 9.85677 800.844 9.64844C800.661 9.4349 800.435 9.26562 800.164 9.14062C799.893 9.01562 799.576 8.95312 799.211 8.95312C798.815 8.95312 798.474 9.03646 798.188 9.20312C797.906 9.36458 797.674 9.58854 797.492 9.875C797.315 10.1562 797.182 10.4844 797.094 10.8594C797.01 11.2292 796.969 11.625 796.969 12.0469Z" fill="#8A95AD"/>
<path d="M837.883 13.4688C837.883 13.2031 837.841 12.9688 837.758 12.7656C837.68 12.5573 837.539 12.3698 837.336 12.2031C837.138 12.0365 836.862 11.8776 836.508 11.7266C836.159 11.5755 835.716 11.4219 835.18 11.2656C834.617 11.099 834.109 10.9141 833.656 10.7109C833.203 10.5026 832.815 10.2656 832.492 10C832.169 9.73438 831.922 9.42969 831.75 9.08594C831.578 8.74219 831.492 8.34896 831.492 7.90625C831.492 7.46354 831.583 7.05469 831.766 6.67969C831.948 6.30469 832.208 5.97917 832.547 5.70312C832.891 5.42188 833.299 5.20312 833.773 5.04688C834.247 4.89062 834.776 4.8125 835.359 4.8125C836.214 4.8125 836.938 4.97656 837.531 5.30469C838.13 5.6276 838.586 6.05208 838.898 6.57812C839.211 7.09896 839.367 7.65625 839.367 8.25H837.867C837.867 7.82292 837.776 7.44531 837.594 7.11719C837.411 6.78385 837.135 6.52344 836.766 6.33594C836.396 6.14323 835.927 6.04688 835.359 6.04688C834.823 6.04688 834.38 6.1276 834.031 6.28906C833.682 6.45052 833.422 6.66927 833.25 6.94531C833.083 7.22135 833 7.53646 833 7.89062C833 8.13021 833.049 8.34896 833.148 8.54688C833.253 8.73958 833.411 8.91927 833.625 9.08594C833.844 9.2526 834.12 9.40625 834.453 9.54688C834.792 9.6875 835.195 9.82292 835.664 9.95312C836.31 10.1354 836.867 10.3385 837.336 10.5625C837.805 10.7865 838.19 11.0391 838.492 11.3203C838.799 11.5964 839.026 11.9115 839.172 12.2656C839.323 12.6146 839.398 13.0104 839.398 13.4531C839.398 13.9167 839.305 14.3359 839.117 14.7109C838.93 15.0859 838.661 15.4062 838.312 15.6719C837.964 15.9375 837.544 16.1432 837.055 16.2891C836.57 16.4297 836.029 16.5 835.43 16.5C834.904 16.5 834.385 16.4271 833.875 16.2812C833.37 16.1354 832.909 15.9167 832.492 15.625C832.081 15.3333 831.75 14.974 831.5 14.5469C831.255 14.1146 831.133 13.6146 831.133 13.0469H832.633C832.633 13.4375 832.708 13.7734 832.859 14.0547C833.01 14.3307 833.216 14.5599 833.477 14.7422C833.742 14.9245 834.042 15.0599 834.375 15.1484C834.714 15.2318 835.065 15.2734 835.43 15.2734C835.956 15.2734 836.401 15.2005 836.766 15.0547C837.13 14.9089 837.406 14.7005 837.594 14.4297C837.786 14.1589 837.883 13.8385 837.883 13.4688ZM844.641 7.89062V9H840.07V7.89062H844.641ZM841.617 5.83594H843.062V14.25C843.062 14.5365 843.107 14.7526 843.195 14.8984C843.284 15.0443 843.398 15.1406 843.539 15.1875C843.68 15.2344 843.831 15.2578 843.992 15.2578C844.112 15.2578 844.237 15.2474 844.367 15.2266C844.503 15.2005 844.604 15.1797 844.672 15.1641L844.68 16.3438C844.565 16.3802 844.414 16.4141 844.227 16.4453C844.044 16.4818 843.823 16.5 843.562 16.5C843.208 16.5 842.883 16.4297 842.586 16.2891C842.289 16.1484 842.052 15.9141 841.875 15.5859C841.703 15.2526 841.617 14.8047 841.617 14.2422V5.83594ZM848.711 15.4688L851.062 7.89062H852.609L849.219 17.6484C849.141 17.8568 849.036 18.0807 848.906 18.3203C848.781 18.5651 848.62 18.7969 848.422 19.0156C848.224 19.2344 847.984 19.4115 847.703 19.5469C847.427 19.6875 847.096 19.7578 846.711 19.7578C846.596 19.7578 846.451 19.7422 846.273 19.7109C846.096 19.6797 845.971 19.6536 845.898 19.6328L845.891 18.4609C845.932 18.4661 845.997 18.4714 846.086 18.4766C846.18 18.487 846.245 18.4922 846.281 18.4922C846.609 18.4922 846.888 18.4479 847.117 18.3594C847.346 18.276 847.539 18.1328 847.695 17.9297C847.857 17.7318 847.995 17.4583 848.109 17.1094L848.711 15.4688ZM846.984 7.89062L849.18 14.4531L849.555 15.9766L848.516 16.5078L845.406 7.89062H846.984ZM855.484 4.34375V16.3438H854.031V4.34375H855.484ZM861.312 16.5C860.724 16.5 860.19 16.401 859.711 16.2031C859.237 16 858.828 15.7161 858.484 15.3516C858.146 14.987 857.885 14.5547 857.703 14.0547C857.521 13.5547 857.43 13.0078 857.43 12.4141V12.0859C857.43 11.3984 857.531 10.7865 857.734 10.25C857.938 9.70833 858.214 9.25 858.562 8.875C858.911 8.5 859.307 8.21615 859.75 8.02344C860.193 7.83073 860.651 7.73438 861.125 7.73438C861.729 7.73438 862.25 7.83854 862.688 8.04688C863.13 8.25521 863.492 8.54688 863.773 8.92188C864.055 9.29167 864.263 9.72917 864.398 10.2344C864.534 10.7344 864.602 11.2812 864.602 11.875V12.5234H858.289V11.3438H863.156V11.2344C863.135 10.8594 863.057 10.4948 862.922 10.1406C862.792 9.78646 862.583 9.49479 862.297 9.26562C862.01 9.03646 861.62 8.92188 861.125 8.92188C860.797 8.92188 860.495 8.99219 860.219 9.13281C859.943 9.26823 859.706 9.47135 859.508 9.74219C859.31 10.013 859.156 10.3438 859.047 10.7344C858.938 11.125 858.883 11.5755 858.883 12.0859V12.4141C858.883 12.8151 858.938 13.1927 859.047 13.5469C859.161 13.8958 859.326 14.2031 859.539 14.4688C859.758 14.7344 860.021 14.9427 860.328 15.0938C860.641 15.2448 860.995 15.3203 861.391 15.3203C861.901 15.3203 862.333 15.2161 862.688 15.0078C863.042 14.7995 863.352 14.5208 863.617 14.1719L864.492 14.8672C864.31 15.1432 864.078 15.4062 863.797 15.6562C863.516 15.9062 863.169 16.1094 862.758 16.2656C862.352 16.4219 861.87 16.5 861.312 16.5ZM878.883 10.6797V14.8438C878.742 15.0521 878.518 15.2865 878.211 15.5469C877.904 15.8021 877.479 16.026 876.938 16.2188C876.401 16.4062 875.708 16.5 874.859 16.5C874.167 16.5 873.529 16.3802 872.945 16.1406C872.367 15.8958 871.865 15.5417 871.438 15.0781C871.016 14.6094 870.688 14.0417 870.453 13.375C870.224 12.7031 870.109 11.9427 870.109 11.0938V10.2109C870.109 9.36198 870.208 8.60417 870.406 7.9375C870.609 7.27083 870.906 6.70573 871.297 6.24219C871.688 5.77344 872.167 5.41927 872.734 5.17969C873.302 4.9349 873.953 4.8125 874.688 4.8125C875.557 4.8125 876.284 4.96354 876.867 5.26562C877.456 5.5625 877.914 5.97396 878.242 6.5C878.576 7.02604 878.789 7.625 878.883 8.29688H877.375C877.307 7.88542 877.172 7.51042 876.969 7.17188C876.771 6.83333 876.487 6.5625 876.117 6.35938C875.747 6.15104 875.271 6.04688 874.688 6.04688C874.161 6.04688 873.706 6.14323 873.32 6.33594C872.935 6.52865 872.617 6.80469 872.367 7.16406C872.117 7.52344 871.93 7.95833 871.805 8.46875C871.685 8.97917 871.625 9.55469 871.625 10.1953V11.0938C871.625 11.75 871.701 12.3359 871.852 12.8516C872.008 13.3672 872.229 13.8073 872.516 14.1719C872.802 14.5312 873.143 14.8047 873.539 14.9922C873.94 15.1797 874.383 15.2734 874.867 15.2734C875.404 15.2734 875.839 15.2292 876.172 15.1406C876.505 15.0469 876.766 14.9375 876.953 14.8125C877.141 14.6823 877.284 14.5599 877.383 14.4453V11.8984H874.75V10.6797H878.883ZM886.336 14.3906V7.89062H887.789V16.3438H886.406L886.336 14.3906ZM886.609 12.6094L887.211 12.5938C887.211 13.1562 887.151 13.6771 887.031 14.1562C886.917 14.6302 886.729 15.0417 886.469 15.3906C886.208 15.7396 885.867 16.013 885.445 16.2109C885.023 16.4036 884.51 16.5 883.906 16.5C883.495 16.5 883.117 16.4401 882.773 16.3203C882.435 16.2005 882.143 16.0156 881.898 15.7656C881.654 15.5156 881.464 15.1901 881.328 14.7891C881.198 14.388 881.133 13.9062 881.133 13.3438V7.89062H882.578V13.3594C882.578 13.7396 882.62 14.0547 882.703 14.3047C882.792 14.5495 882.909 14.7448 883.055 14.8906C883.206 15.0312 883.372 15.1302 883.555 15.1875C883.742 15.2448 883.935 15.2734 884.133 15.2734C884.747 15.2734 885.234 15.1562 885.594 14.9219C885.953 14.6823 886.211 14.362 886.367 13.9609C886.529 13.5547 886.609 13.1042 886.609 12.6094ZM891.562 7.89062V16.3438H890.109V7.89062H891.562ZM890 5.64844C890 5.41406 890.07 5.21615 890.211 5.05469C890.357 4.89323 890.57 4.8125 890.852 4.8125C891.128 4.8125 891.339 4.89323 891.484 5.05469C891.635 5.21615 891.711 5.41406 891.711 5.64844C891.711 5.8724 891.635 6.0651 891.484 6.22656C891.339 6.38281 891.128 6.46094 890.852 6.46094C890.57 6.46094 890.357 6.38281 890.211 6.22656C890.07 6.0651 890 5.8724 890 5.64844ZM899.211 14.7031V4.34375H900.664V16.3438H899.336L899.211 14.7031ZM893.523 12.2109V12.0469C893.523 11.401 893.602 10.8151 893.758 10.2891C893.919 9.75781 894.146 9.30208 894.438 8.92188C894.734 8.54167 895.086 8.25 895.492 8.04688C895.904 7.83854 896.362 7.73438 896.867 7.73438C897.398 7.73438 897.862 7.82812 898.258 8.01562C898.659 8.19792 898.997 8.46615 899.273 8.82031C899.555 9.16927 899.776 9.59115 899.938 10.0859C900.099 10.5807 900.211 11.1406 900.273 11.7656V12.4844C900.216 13.1042 900.104 13.6615 899.938 14.1562C899.776 14.651 899.555 15.0729 899.273 15.4219C898.997 15.7708 898.659 16.0391 898.258 16.2266C897.857 16.4089 897.388 16.5 896.852 16.5C896.357 16.5 895.904 16.3932 895.492 16.1797C895.086 15.9661 894.734 15.6667 894.438 15.2812C894.146 14.8958 893.919 14.4427 893.758 13.9219C893.602 13.3958 893.523 12.8255 893.523 12.2109ZM894.977 12.0469V12.2109C894.977 12.6328 895.018 13.0286 895.102 13.3984C895.19 13.7682 895.326 14.0938 895.508 14.375C895.69 14.6562 895.922 14.8776 896.203 15.0391C896.484 15.1953 896.82 15.2734 897.211 15.2734C897.69 15.2734 898.083 15.1719 898.391 14.9688C898.703 14.7656 898.953 14.4974 899.141 14.1641C899.328 13.8307 899.474 13.4688 899.578 13.0781V11.1953C899.516 10.9089 899.424 10.6328 899.305 10.3672C899.19 10.0964 899.039 9.85677 898.852 9.64844C898.669 9.4349 898.443 9.26562 898.172 9.14062C897.906 9.01562 897.591 8.95312 897.227 8.95312C896.831 8.95312 896.49 9.03646 896.203 9.20312C895.922 9.36458 895.69 9.58854 895.508 9.875C895.326 10.1562 895.19 10.4844 895.102 10.8594C895.018 11.2292 894.977 11.625 894.977 12.0469ZM906.422 16.5C905.833 16.5 905.299 16.401 904.82 16.2031C904.346 16 903.938 15.7161 903.594 15.3516C903.255 14.987 902.995 14.5547 902.812 14.0547C902.63 13.5547 902.539 13.0078 902.539 12.4141V12.0859C902.539 11.3984 902.641 10.7865 902.844 10.25C903.047 9.70833 903.323 9.25 903.672 8.875C904.021 8.5 904.417 8.21615 904.859 8.02344C905.302 7.83073 905.76 7.73438 906.234 7.73438C906.839 7.73438 907.359 7.83854 907.797 8.04688C908.24 8.25521 908.602 8.54688 908.883 8.92188C909.164 9.29167 909.372 9.72917 909.508 10.2344C909.643 10.7344 909.711 11.2812 909.711 11.875V12.5234H903.398V11.3438H908.266V11.2344C908.245 10.8594 908.167 10.4948 908.031 10.1406C907.901 9.78646 907.693 9.49479 907.406 9.26562C907.12 9.03646 906.729 8.92188 906.234 8.92188C905.906 8.92188 905.604 8.99219 905.328 9.13281C905.052 9.26823 904.815 9.47135 904.617 9.74219C904.419 10.013 904.266 10.3438 904.156 10.7344C904.047 11.125 903.992 11.5755 903.992 12.0859V12.4141C903.992 12.8151 904.047 13.1927 904.156 13.5469C904.271 13.8958 904.435 14.2031 904.648 14.4688C904.867 14.7344 905.13 14.9427 905.438 15.0938C905.75 15.2448 906.104 15.3203 906.5 15.3203C907.01 15.3203 907.443 15.2161 907.797 15.0078C908.151 14.7995 908.461 14.5208 908.727 14.1719L909.602 14.8672C909.419 15.1432 909.188 15.4062 908.906 15.6562C908.625 15.9062 908.279 16.1094 907.867 16.2656C907.461 16.4219 906.979 16.5 906.422 16.5Z" fill="#8A95AD"/>
<path d="M263.625 15.5781C263.625 15.3333 263.701 15.1276 263.852 14.9609C264.008 14.7891 264.232 14.7031 264.523 14.7031C264.815 14.7031 265.036 14.7891 265.188 14.9609C265.344 15.1276 265.422 15.3333 265.422 15.5781C265.422 15.8177 265.344 16.0208 265.188 16.1875C265.036 16.3542 264.815 16.4375 264.523 16.4375C264.232 16.4375 264.008 16.3542 263.852 16.1875C263.701 16.0208 263.625 15.8177 263.625 15.5781ZM276.203 11.8828H273.164V10.6562H276.203C276.792 10.6562 277.268 10.5625 277.633 10.375C277.997 10.1875 278.263 9.92708 278.43 9.59375C278.602 9.26042 278.688 8.88021 278.688 8.45312C278.688 8.0625 278.602 7.69531 278.43 7.35156C278.263 7.00781 277.997 6.73177 277.633 6.52344C277.268 6.3099 276.792 6.20312 276.203 6.20312H273.516V16.3438H272.008V4.96875H276.203C277.062 4.96875 277.789 5.11719 278.383 5.41406C278.977 5.71094 279.427 6.1224 279.734 6.64844C280.042 7.16927 280.195 7.76562 280.195 8.4375C280.195 9.16667 280.042 9.78906 279.734 10.3047C279.427 10.8203 278.977 11.2135 278.383 11.4844C277.789 11.75 277.062 11.8828 276.203 11.8828ZM281.391 12.2109V12.0312C281.391 11.4219 281.479 10.8568 281.656 10.3359C281.833 9.8099 282.089 9.35417 282.422 8.96875C282.755 8.57812 283.159 8.27604 283.633 8.0625C284.107 7.84375 284.638 7.73438 285.227 7.73438C285.82 7.73438 286.354 7.84375 286.828 8.0625C287.307 8.27604 287.714 8.57812 288.047 8.96875C288.385 9.35417 288.643 9.8099 288.82 10.3359C288.997 10.8568 289.086 11.4219 289.086 12.0312V12.2109C289.086 12.8203 288.997 13.3854 288.82 13.9062C288.643 14.4271 288.385 14.8828 288.047 15.2734C287.714 15.6589 287.31 15.9609 286.836 16.1797C286.367 16.3932 285.836 16.5 285.242 16.5C284.648 16.5 284.115 16.3932 283.641 16.1797C283.167 15.9609 282.76 15.6589 282.422 15.2734C282.089 14.8828 281.833 14.4271 281.656 13.9062C281.479 13.3854 281.391 12.8203 281.391 12.2109ZM282.836 12.0312V12.2109C282.836 12.6328 282.885 13.0312 282.984 13.4062C283.083 13.776 283.232 14.1042 283.43 14.3906C283.633 14.6771 283.885 14.9036 284.188 15.0703C284.49 15.2318 284.841 15.3125 285.242 15.3125C285.638 15.3125 285.984 15.2318 286.281 15.0703C286.583 14.9036 286.833 14.6771 287.031 14.3906C287.229 14.1042 287.378 13.776 287.477 13.4062C287.581 13.0312 287.633 12.6328 287.633 12.2109V12.0312C287.633 11.6146 287.581 11.2214 287.477 10.8516C287.378 10.4766 287.227 10.1458 287.023 9.85938C286.826 9.56771 286.576 9.33854 286.273 9.17188C285.977 9.00521 285.628 8.92188 285.227 8.92188C284.831 8.92188 284.482 9.00521 284.18 9.17188C283.883 9.33854 283.633 9.56771 283.43 9.85938C283.232 10.1458 283.083 10.4766 282.984 10.8516C282.885 11.2214 282.836 11.6146 282.836 12.0312ZM293.039 14.8438L295.211 7.89062H296.164L295.977 9.27344L293.766 16.3438H292.836L293.039 14.8438ZM291.578 7.89062L293.43 14.9219L293.562 16.3438H292.586L290.133 7.89062H291.578ZM298.242 14.8672L300.008 7.89062H301.445L298.992 16.3438H298.023L298.242 14.8672ZM296.375 7.89062L298.5 14.7266L298.742 16.3438H297.82L295.547 9.25781L295.359 7.89062H296.375ZM306.438 16.5C305.849 16.5 305.315 16.401 304.836 16.2031C304.362 16 303.953 15.7161 303.609 15.3516C303.271 14.987 303.01 14.5547 302.828 14.0547C302.646 13.5547 302.555 13.0078 302.555 12.4141V12.0859C302.555 11.3984 302.656 10.7865 302.859 10.25C303.062 9.70833 303.339 9.25 303.688 8.875C304.036 8.5 304.432 8.21615 304.875 8.02344C305.318 7.83073 305.776 7.73438 306.25 7.73438C306.854 7.73438 307.375 7.83854 307.812 8.04688C308.255 8.25521 308.617 8.54688 308.898 8.92188C309.18 9.29167 309.388 9.72917 309.523 10.2344C309.659 10.7344 309.727 11.2812 309.727 11.875V12.5234H303.414V11.3438H308.281V11.2344C308.26 10.8594 308.182 10.4948 308.047 10.1406C307.917 9.78646 307.708 9.49479 307.422 9.26562C307.135 9.03646 306.745 8.92188 306.25 8.92188C305.922 8.92188 305.62 8.99219 305.344 9.13281C305.068 9.26823 304.831 9.47135 304.633 9.74219C304.435 10.013 304.281 10.3438 304.172 10.7344C304.062 11.125 304.008 11.5755 304.008 12.0859V12.4141C304.008 12.8151 304.062 13.1927 304.172 13.5469C304.286 13.8958 304.451 14.2031 304.664 14.4688C304.883 14.7344 305.146 14.9427 305.453 15.0938C305.766 15.2448 306.12 15.3203 306.516 15.3203C307.026 15.3203 307.458 15.2161 307.812 15.0078C308.167 14.7995 308.477 14.5208 308.742 14.1719L309.617 14.8672C309.435 15.1432 309.203 15.4062 308.922 15.6562C308.641 15.9062 308.294 16.1094 307.883 16.2656C307.477 16.4219 306.995 16.5 306.438 16.5ZM312.859 9.21875V16.3438H311.414V7.89062H312.82L312.859 9.21875ZM315.5 7.84375L315.492 9.1875C315.372 9.16146 315.258 9.14583 315.148 9.14062C315.044 9.13021 314.924 9.125 314.789 9.125C314.456 9.125 314.161 9.17708 313.906 9.28125C313.651 9.38542 313.435 9.53125 313.258 9.71875C313.081 9.90625 312.94 10.1302 312.836 10.3906C312.737 10.6458 312.672 10.9271 312.641 11.2344L312.234 11.4688C312.234 10.9583 312.284 10.4792 312.383 10.0312C312.487 9.58333 312.646 9.1875 312.859 8.84375C313.073 8.49479 313.344 8.22396 313.672 8.03125C314.005 7.83333 314.401 7.73438 314.859 7.73438C314.964 7.73438 315.083 7.7474 315.219 7.77344C315.354 7.79427 315.448 7.81771 315.5 7.84375ZM320.188 16.5C319.599 16.5 319.065 16.401 318.586 16.2031C318.112 16 317.703 15.7161 317.359 15.3516C317.021 14.987 316.76 14.5547 316.578 14.0547C316.396 13.5547 316.305 13.0078 316.305 12.4141V12.0859C316.305 11.3984 316.406 10.7865 316.609 10.25C316.812 9.70833 317.089 9.25 317.438 8.875C317.786 8.5 318.182 8.21615 318.625 8.02344C319.068 7.83073 319.526 7.73438 320 7.73438C320.604 7.73438 321.125 7.83854 321.562 8.04688C322.005 8.25521 322.367 8.54688 322.648 8.92188C322.93 9.29167 323.138 9.72917 323.273 10.2344C323.409 10.7344 323.477 11.2812 323.477 11.875V12.5234H317.164V11.3438H322.031V11.2344C322.01 10.8594 321.932 10.4948 321.797 10.1406C321.667 9.78646 321.458 9.49479 321.172 9.26562C320.885 9.03646 320.495 8.92188 320 8.92188C319.672 8.92188 319.37 8.99219 319.094 9.13281C318.818 9.26823 318.581 9.47135 318.383 9.74219C318.185 10.013 318.031 10.3438 317.922 10.7344C317.812 11.125 317.758 11.5755 317.758 12.0859V12.4141C317.758 12.8151 317.812 13.1927 317.922 13.5469C318.036 13.8958 318.201 14.2031 318.414 14.4688C318.633 14.7344 318.896 14.9427 319.203 15.0938C319.516 15.2448 319.87 15.3203 320.266 15.3203C320.776 15.3203 321.208 15.2161 321.562 15.0078C321.917 14.7995 322.227 14.5208 322.492 14.1719L323.367 14.8672C323.185 15.1432 322.953 15.4062 322.672 15.6562C322.391 15.9062 322.044 16.1094 321.633 16.2656C321.227 16.4219 320.745 16.5 320.188 16.5ZM330.492 14.7031V4.34375H331.945V16.3438H330.617L330.492 14.7031ZM324.805 12.2109V12.0469C324.805 11.401 324.883 10.8151 325.039 10.2891C325.201 9.75781 325.427 9.30208 325.719 8.92188C326.016 8.54167 326.367 8.25 326.773 8.04688C327.185 7.83854 327.643 7.73438 328.148 7.73438C328.68 7.73438 329.143 7.82812 329.539 8.01562C329.94 8.19792 330.279 8.46615 330.555 8.82031C330.836 9.16927 331.057 9.59115 331.219 10.0859C331.38 10.5807 331.492 11.1406 331.555 11.7656V12.4844C331.497 13.1042 331.385 13.6615 331.219 14.1562C331.057 14.651 330.836 15.0729 330.555 15.4219C330.279 15.7708 329.94 16.0391 329.539 16.2266C329.138 16.4089 328.669 16.5 328.133 16.5C327.638 16.5 327.185 16.3932 326.773 16.1797C326.367 15.9661 326.016 15.6667 325.719 15.2812C325.427 14.8958 325.201 14.4427 325.039 13.9219C324.883 13.3958 324.805 12.8255 324.805 12.2109ZM326.258 12.0469V12.2109C326.258 12.6328 326.299 13.0286 326.383 13.3984C326.471 13.7682 326.607 14.0938 326.789 14.375C326.971 14.6562 327.203 14.8776 327.484 15.0391C327.766 15.1953 328.102 15.2734 328.492 15.2734C328.971 15.2734 329.365 15.1719 329.672 14.9688C329.984 14.7656 330.234 14.4974 330.422 14.1641C330.609 13.8307 330.755 13.4688 330.859 13.0781V11.1953C330.797 10.9089 330.706 10.6328 330.586 10.3672C330.471 10.0964 330.32 9.85677 330.133 9.64844C329.951 9.4349 329.724 9.26562 329.453 9.14062C329.188 9.01562 328.872 8.95312 328.508 8.95312C328.112 8.95312 327.771 9.03646 327.484 9.20312C327.203 9.36458 326.971 9.58854 326.789 9.875C326.607 10.1562 326.471 10.4844 326.383 10.8594C326.299 11.2292 326.258 11.625 326.258 12.0469ZM338.156 4.34375H339.609V14.7031L339.484 16.3438H338.156V4.34375ZM345.32 12.0469V12.2109C345.32 12.8255 345.247 13.3958 345.102 13.9219C344.956 14.4427 344.742 14.8958 344.461 15.2812C344.18 15.6667 343.836 15.9661 343.43 16.1797C343.023 16.3932 342.557 16.5 342.031 16.5C341.495 16.5 341.023 16.4089 340.617 16.2266C340.216 16.0391 339.878 15.7708 339.602 15.4219C339.326 15.0729 339.104 14.651 338.938 14.1562C338.776 13.6615 338.664 13.1042 338.602 12.4844V11.7656C338.664 11.1406 338.776 10.5807 338.938 10.0859C339.104 9.59115 339.326 9.16927 339.602 8.82031C339.878 8.46615 340.216 8.19792 340.617 8.01562C341.018 7.82812 341.484 7.73438 342.016 7.73438C342.547 7.73438 343.018 7.83854 343.43 8.04688C343.841 8.25 344.185 8.54167 344.461 8.92188C344.742 9.30208 344.956 9.75781 345.102 10.2891C345.247 10.8151 345.32 11.401 345.32 12.0469ZM343.867 12.2109V12.0469C343.867 11.625 343.828 11.2292 343.75 10.8594C343.672 10.4844 343.547 10.1562 343.375 9.875C343.203 9.58854 342.977 9.36458 342.695 9.20312C342.414 9.03646 342.068 8.95312 341.656 8.95312C341.292 8.95312 340.974 9.01562 340.703 9.14062C340.438 9.26562 340.211 9.4349 340.023 9.64844C339.836 9.85677 339.682 10.0964 339.562 10.3672C339.448 10.6328 339.362 10.9089 339.305 11.1953V13.0781C339.388 13.4427 339.523 13.7943 339.711 14.1328C339.904 14.4661 340.159 14.7396 340.477 14.9531C340.799 15.1667 341.198 15.2734 341.672 15.2734C342.062 15.2734 342.396 15.1953 342.672 15.0391C342.953 14.8776 343.18 14.6562 343.352 14.375C343.529 14.0938 343.659 13.7682 343.742 13.3984C343.826 13.0286 343.867 12.6328 343.867 12.2109ZM349.43 15.4688L351.781 7.89062H353.328L349.938 17.6484C349.859 17.8568 349.755 18.0807 349.625 18.3203C349.5 18.5651 349.339 18.7969 349.141 19.0156C348.943 19.2344 348.703 19.4115 348.422 19.5469C348.146 19.6875 347.815 19.7578 347.43 19.7578C347.315 19.7578 347.169 19.7422 346.992 19.7109C346.815 19.6797 346.69 19.6536 346.617 19.6328L346.609 18.4609C346.651 18.4661 346.716 18.4714 346.805 18.4766C346.898 18.487 346.964 18.4922 347 18.4922C347.328 18.4922 347.607 18.4479 347.836 18.3594C348.065 18.276 348.258 18.1328 348.414 17.9297C348.576 17.7318 348.714 17.4583 348.828 17.1094L349.43 15.4688ZM347.703 7.89062L349.898 14.4531L350.273 15.9766L349.234 16.5078L346.125 7.89062H347.703Z" fill="#8A95AD"/>
<path d="M607.633 4.96875L602.891 17.3203H601.648L606.398 4.96875H607.633Z" fill="#8A95AD"/>
<path d="M823.633 4.96875L818.891 17.3203H817.648L822.398 4.96875H823.633Z" fill="#8A95AD"/>
<path d="M447.633 4.96875L442.891 17.3203H441.648L446.398 4.96875H447.633Z" fill="#8A95AD"/>
<path d="M8.10938 11.6719H9.25C9.25 12.4896 9.01562 13.1042 8.54688 13.5156C8.08333 13.9219 7.45312 14.125 6.65625 14.125C6.10417 14.125 5.625 13.9974 5.21875 13.7422C4.81771 13.487 4.50521 13.1328 4.28125 12.6797C4.0625 12.2266 3.95312 11.7005 3.95312 11.1016V10.2031C3.95312 9.60417 4.0625 9.07812 4.28125 8.625C4.50521 8.17188 4.81771 7.81771 5.21875 7.5625C5.625 7.30729 6.10417 7.17969 6.65625 7.17969C7.45312 7.17969 8.08594 7.38281 8.55469 7.78906C9.02344 8.19531 9.25781 8.80729 9.25781 9.625H8.11719C8.11719 9.10938 7.99219 8.73958 7.74219 8.51562C7.4974 8.29167 7.13542 8.17969 6.65625 8.17969C6.3125 8.17969 6.02344 8.26562 5.78906 8.4375C5.55469 8.60938 5.3776 8.84896 5.25781 9.15625C5.13802 9.45833 5.07812 9.80469 5.07812 10.1953V11.1016C5.07812 11.4974 5.13802 11.849 5.25781 12.1562C5.3776 12.4583 5.55469 12.6953 5.78906 12.8672C6.02344 13.0391 6.3125 13.125 6.65625 13.125C7.13542 13.125 7.4974 13.013 7.74219 12.7891C7.98698 12.5651 8.10938 12.1927 8.10938 11.6719ZM2.11719 10.6484C2.11719 11.3411 2.23698 11.987 2.47656 12.5859C2.71615 13.1849 3.04948 13.7083 3.47656 14.1562C3.90365 14.6042 4.39844 14.9531 4.96094 15.2031C5.52344 15.4531 6.125 15.5781 6.76562 15.5781C7.40625 15.5781 8.00521 15.4531 8.5625 15.2031C9.125 14.9531 9.61719 14.6042 10.0391 14.1562C10.4661 13.7083 10.7995 13.1849 11.0391 12.5859C11.2786 11.987 11.3984 11.3411 11.3984 10.6484C11.3984 9.95052 11.2786 9.30469 11.0391 8.71094C10.7995 8.11719 10.4661 7.59896 10.0391 7.15625C9.61719 6.70833 9.125 6.36198 8.5625 6.11719C8.00521 5.86719 7.40625 5.74219 6.76562 5.74219C6.125 5.74219 5.52344 5.86719 4.96094 6.11719C4.39844 6.36198 3.90365 6.70833 3.47656 7.15625C3.04948 7.59896 2.71615 8.11719 2.47656 8.71094C2.23698 9.30469 2.11719 9.95052 2.11719 10.6484ZM1.21875 10.6484C1.21875 9.82031 1.36198 9.05208 1.64844 8.34375C1.9349 7.63542 2.33333 7.01823 2.84375 6.49219C3.35417 5.96094 3.94271 5.54948 4.60938 5.25781C5.28125 4.96094 6 4.8125 6.76562 4.8125C7.53125 4.8125 8.2474 4.96094 8.91406 5.25781C9.58594 5.54948 10.1745 5.96094 10.6797 6.49219C11.1901 7.01823 11.5885 7.63542 11.875 8.34375C12.1615 9.05208 12.3047 9.82031 12.3047 10.6484C12.3047 11.4766 12.1615 12.2448 11.875 12.9531C11.5885 13.6615 11.1901 14.2839 10.6797 14.8203C10.1745 15.3516 9.58594 15.7656 8.91406 16.0625C8.2474 16.3594 7.53125 16.5078 6.76562 16.5078C6 16.5078 5.28125 16.3594 4.60938 16.0625C3.94271 15.7656 3.35417 15.3516 2.84375 14.8203C2.33333 14.2839 1.9349 13.6615 1.64844 12.9531C1.36198 12.2448 1.21875 11.4766 1.21875 10.6484ZM22.5781 5.97656L18.8125 16.3438H17.2734L21.6094 4.96875H22.6016L22.5781 5.97656ZM25.7344 16.3438L21.9609 5.97656L21.9375 4.96875H22.9297L27.2812 16.3438H25.7344ZM25.5391 12.1328V13.3672H19.1484V12.1328H25.5391ZM30.1562 4.34375V16.3438H28.7031V4.34375H30.1562ZM34.0469 4.34375V16.3438H32.5938V4.34375H34.0469ZM41.7812 9.21875V16.3438H40.3359V7.89062H41.7422L41.7812 9.21875ZM44.4219 7.84375L44.4141 9.1875C44.2943 9.16146 44.1797 9.14583 44.0703 9.14062C43.9661 9.13021 43.8464 9.125 43.7109 9.125C43.3776 9.125 43.0833 9.17708 42.8281 9.28125C42.5729 9.38542 42.3568 9.53125 42.1797 9.71875C42.0026 9.90625 41.862 10.1302 41.7578 10.3906C41.6589 10.6458 41.5938 10.9271 41.5625 11.2344L41.1562 11.4688C41.1562 10.9583 41.2057 10.4792 41.3047 10.0312C41.4089 9.58333 41.5677 9.1875 41.7812 8.84375C41.9948 8.49479 42.2656 8.22396 42.5938 8.03125C42.9271 7.83333 43.3229 7.73438 43.7812 7.73438C43.8854 7.73438 44.0052 7.7474 44.1406 7.77344C44.276 7.79427 44.3698 7.81771 44.4219 7.84375ZM47.3281 7.89062V16.3438H45.875V7.89062H47.3281ZM45.7656 5.64844C45.7656 5.41406 45.8359 5.21615 45.9766 5.05469C46.1224 4.89323 46.3359 4.8125 46.6172 4.8125C46.8932 4.8125 47.1042 4.89323 47.25 5.05469C47.401 5.21615 47.4766 5.41406 47.4766 5.64844C47.4766 5.8724 47.401 6.0651 47.25 6.22656C47.1042 6.38281 46.8932 6.46094 46.6172 6.46094C46.3359 6.46094 46.1224 6.38281 45.9766 6.22656C45.8359 6.0651 45.7656 5.8724 45.7656 5.64844ZM55.125 7.89062H56.4375V16.1641C56.4375 16.9089 56.2865 17.5443 55.9844 18.0703C55.6823 18.5964 55.2604 18.9948 54.7188 19.2656C54.1823 19.5417 53.5625 19.6797 52.8594 19.6797C52.5677 19.6797 52.224 19.6328 51.8281 19.5391C51.4375 19.4505 51.0521 19.2969 50.6719 19.0781C50.2969 18.8646 49.9818 18.5755 49.7266 18.2109L50.4844 17.3516C50.8385 17.7786 51.2083 18.0755 51.5938 18.2422C51.9844 18.4089 52.3698 18.4922 52.75 18.4922C53.2083 18.4922 53.6042 18.4062 53.9375 18.2344C54.2708 18.0625 54.5286 17.8073 54.7109 17.4688C54.8984 17.1354 54.9922 16.724 54.9922 16.2344V9.75L55.125 7.89062ZM49.3047 12.2109V12.0469C49.3047 11.401 49.3802 10.8151 49.5312 10.2891C49.6875 9.75781 49.9089 9.30208 50.1953 8.92188C50.487 8.54167 50.8385 8.25 51.25 8.04688C51.6615 7.83854 52.125 7.73438 52.6406 7.73438C53.1719 7.73438 53.6354 7.82812 54.0312 8.01562C54.4323 8.19792 54.7708 8.46615 55.0469 8.82031C55.3281 9.16927 55.5495 9.59115 55.7109 10.0859C55.8724 10.5807 55.9844 11.1406 56.0469 11.7656V12.4844C55.9896 13.1042 55.8776 13.6615 55.7109 14.1562C55.5495 14.651 55.3281 15.0729 55.0469 15.4219C54.7708 15.7708 54.4323 16.0391 54.0312 16.2266C53.6302 16.4089 53.1615 16.5 52.625 16.5C52.1198 16.5 51.6615 16.3932 51.25 16.1797C50.8438 15.9661 50.4948 15.6667 50.2031 15.2812C49.9115 14.8958 49.6875 14.4427 49.5312 13.9219C49.3802 13.3958 49.3047 12.8255 49.3047 12.2109ZM50.75 12.0469V12.2109C50.75 12.6328 50.7917 13.0286 50.875 13.3984C50.9635 13.7682 51.0964 14.0938 51.2734 14.375C51.4557 14.6562 51.6875 14.8776 51.9688 15.0391C52.25 15.1953 52.5859 15.2734 52.9766 15.2734C53.4557 15.2734 53.8516 15.1719 54.1641 14.9688C54.4766 14.7656 54.724 14.4974 54.9062 14.1641C55.0938 13.8307 55.2396 13.4688 55.3438 13.0781V11.1953C55.2865 10.9089 55.1979 10.6328 55.0781 10.3672C54.9635 10.0964 54.8125 9.85677 54.625 9.64844C54.4427 9.4349 54.2161 9.26562 53.9453 9.14062C53.6745 9.01562 53.3568 8.95312 52.9922 8.95312C52.5964 8.95312 52.2552 9.03646 51.9688 9.20312C51.6875 9.36458 51.4557 9.58854 51.2734 9.875C51.0964 10.1562 50.9635 10.4844 50.875 10.8594C50.7917 11.2292 50.75 11.625 50.75 12.0469ZM60.0781 4.34375V16.3438H58.6328V4.34375H60.0781ZM59.7344 11.7969L59.1328 11.7734C59.138 11.1953 59.224 10.6615 59.3906 10.1719C59.5573 9.67708 59.7917 9.2474 60.0938 8.88281C60.3958 8.51823 60.7552 8.23698 61.1719 8.03906C61.5938 7.83594 62.0599 7.73438 62.5703 7.73438C62.987 7.73438 63.362 7.79167 63.6953 7.90625C64.0286 8.01562 64.3125 8.19271 64.5469 8.4375C64.7865 8.68229 64.9688 9 65.0938 9.39062C65.2188 9.77604 65.2812 10.2474 65.2812 10.8047V16.3438H63.8281V10.7891C63.8281 10.3464 63.763 9.99219 63.6328 9.72656C63.5026 9.45573 63.3125 9.26042 63.0625 9.14062C62.8125 9.01562 62.5052 8.95312 62.1406 8.95312C61.7812 8.95312 61.4531 9.02865 61.1562 9.17969C60.8646 9.33073 60.612 9.53906 60.3984 9.80469C60.1901 10.0703 60.026 10.375 59.9062 10.7188C59.7917 11.0573 59.7344 11.4167 59.7344 11.7969ZM70.9844 7.89062V9H66.4141V7.89062H70.9844ZM67.9609 5.83594H69.4062V14.25C69.4062 14.5365 69.4505 14.7526 69.5391 14.8984C69.6276 15.0443 69.7422 15.1406 69.8828 15.1875C70.0234 15.2344 70.1745 15.2578 70.3359 15.2578C70.4557 15.2578 70.5807 15.2474 70.7109 15.2266C70.8464 15.2005 70.9479 15.1797 71.0156 15.1641L71.0234 16.3438C70.9089 16.3802 70.7578 16.4141 70.5703 16.4453C70.388 16.4818 70.1667 16.5 69.9062 16.5C69.5521 16.5 69.2266 16.4297 68.9297 16.2891C68.6328 16.1484 68.3958 15.9141 68.2188 15.5859C68.0469 15.2526 67.9609 14.8047 67.9609 14.2422V5.83594ZM77.6016 14.1016C77.6016 13.8932 77.5547 13.7005 77.4609 13.5234C77.3724 13.3411 77.1875 13.1771 76.9062 13.0312C76.6302 12.8802 76.2135 12.75 75.6562 12.6406C75.1875 12.5417 74.763 12.4245 74.3828 12.2891C74.0078 12.1536 73.6875 11.9896 73.4219 11.7969C73.1615 11.6042 72.9609 11.3776 72.8203 11.1172C72.6797 10.8568 72.6094 10.5521 72.6094 10.2031C72.6094 9.86979 72.6823 9.55469 72.8281 9.25781C72.9792 8.96094 73.1901 8.69792 73.4609 8.46875C73.737 8.23958 74.0677 8.0599 74.4531 7.92969C74.8385 7.79948 75.2682 7.73438 75.7422 7.73438C76.4193 7.73438 76.9974 7.85417 77.4766 8.09375C77.9557 8.33333 78.3229 8.65365 78.5781 9.05469C78.8333 9.45052 78.9609 9.89062 78.9609 10.375H77.5156C77.5156 10.1406 77.4453 9.91406 77.3047 9.69531C77.1693 9.47135 76.9688 9.28646 76.7031 9.14062C76.4427 8.99479 76.1224 8.92188 75.7422 8.92188C75.3411 8.92188 75.0156 8.98438 74.7656 9.10938C74.5208 9.22917 74.3411 9.38281 74.2266 9.57031C74.1172 9.75781 74.0625 9.95573 74.0625 10.1641C74.0625 10.3203 74.0885 10.4609 74.1406 10.5859C74.1979 10.7057 74.2969 10.8177 74.4375 10.9219C74.5781 11.0208 74.776 11.1146 75.0312 11.2031C75.2865 11.2917 75.612 11.3802 76.0078 11.4688C76.7005 11.625 77.2708 11.8125 77.7188 12.0312C78.1667 12.25 78.5 12.5182 78.7188 12.8359C78.9375 13.1536 79.0469 13.5391 79.0469 13.9922C79.0469 14.362 78.9688 14.7005 78.8125 15.0078C78.6615 15.3151 78.4401 15.5807 78.1484 15.8047C77.862 16.0234 77.5182 16.1953 77.1172 16.3203C76.7214 16.4401 76.276 16.5 75.7812 16.5C75.0365 16.5 74.4062 16.3672 73.8906 16.1016C73.375 15.8359 72.9844 15.4922 72.7188 15.0703C72.4531 14.6484 72.3203 14.2031 72.3203 13.7344H73.7734C73.7943 14.1302 73.9089 14.4453 74.1172 14.6797C74.3255 14.9089 74.5807 15.0729 74.8828 15.1719C75.1849 15.2656 75.4844 15.3125 75.7812 15.3125C76.1771 15.3125 76.5078 15.2604 76.7734 15.1562C77.0443 15.0521 77.25 14.9089 77.3906 14.7266C77.5312 14.5443 77.6016 14.3359 77.6016 14.1016ZM86.3594 9.21875V16.3438H84.9141V7.89062H86.3203L86.3594 9.21875ZM89 7.84375L88.9922 9.1875C88.8724 9.16146 88.7578 9.14583 88.6484 9.14062C88.5443 9.13021 88.4245 9.125 88.2891 9.125C87.9557 9.125 87.6615 9.17708 87.4062 9.28125C87.151 9.38542 86.9349 9.53125 86.7578 9.71875C86.5807 9.90625 86.4401 10.1302 86.3359 10.3906C86.237 10.6458 86.1719 10.9271 86.1406 11.2344L85.7344 11.4688C85.7344 10.9583 85.7839 10.4792 85.8828 10.0312C85.987 9.58333 86.1458 9.1875 86.3594 8.84375C86.5729 8.49479 86.8438 8.22396 87.1719 8.03125C87.5052 7.83333 87.901 7.73438 88.3594 7.73438C88.4635 7.73438 88.5833 7.7474 88.7188 7.77344C88.8542 7.79427 88.9479 7.81771 89 7.84375ZM93.6875 16.5C93.099 16.5 92.5651 16.401 92.0859 16.2031C91.612 16 91.2031 15.7161 90.8594 15.3516C90.5208 14.987 90.2604 14.5547 90.0781 14.0547C89.8958 13.5547 89.8047 13.0078 89.8047 12.4141V12.0859C89.8047 11.3984 89.9062 10.7865 90.1094 10.25C90.3125 9.70833 90.5885 9.25 90.9375 8.875C91.2865 8.5 91.6823 8.21615 92.125 8.02344C92.5677 7.83073 93.026 7.73438 93.5 7.73438C94.1042 7.73438 94.625 7.83854 95.0625 8.04688C95.5052 8.25521 95.8672 8.54688 96.1484 8.92188C96.4297 9.29167 96.638 9.72917 96.7734 10.2344C96.9089 10.7344 96.9766 11.2812 96.9766 11.875V12.5234H90.6641V11.3438H95.5312V11.2344C95.5104 10.8594 95.4323 10.4948 95.2969 10.1406C95.1667 9.78646 94.9583 9.49479 94.6719 9.26562C94.3854 9.03646 93.9948 8.92188 93.5 8.92188C93.1719 8.92188 92.8698 8.99219 92.5938 9.13281C92.3177 9.26823 92.0807 9.47135 91.8828 9.74219C91.6849 10.013 91.5312 10.3438 91.4219 10.7344C91.3125 11.125 91.2578 11.5755 91.2578 12.0859V12.4141C91.2578 12.8151 91.3125 13.1927 91.4219 13.5469C91.5365 13.8958 91.7005 14.2031 91.9141 14.4688C92.1328 14.7344 92.3958 14.9427 92.7031 15.0938C93.0156 15.2448 93.3698 15.3203 93.7656 15.3203C94.276 15.3203 94.7083 15.2161 95.0625 15.0078C95.4167 14.7995 95.7266 14.5208 95.9922 14.1719L96.8672 14.8672C96.6849 15.1432 96.4531 15.4062 96.1719 15.6562C95.8906 15.9062 95.5443 16.1094 95.1328 16.2656C94.7266 16.4219 94.2448 16.5 93.6875 16.5ZM103.586 14.1016C103.586 13.8932 103.539 13.7005 103.445 13.5234C103.357 13.3411 103.172 13.1771 102.891 13.0312C102.615 12.8802 102.198 12.75 101.641 12.6406C101.172 12.5417 100.747 12.4245 100.367 12.2891C99.9922 12.1536 99.6719 11.9896 99.4062 11.7969C99.1458 11.6042 98.9453 11.3776 98.8047 11.1172C98.6641 10.8568 98.5938 10.5521 98.5938 10.2031C98.5938 9.86979 98.6667 9.55469 98.8125 9.25781C98.9635 8.96094 99.1745 8.69792 99.4453 8.46875C99.7214 8.23958 100.052 8.0599 100.438 7.92969C100.823 7.79948 101.253 7.73438 101.727 7.73438C102.404 7.73438 102.982 7.85417 103.461 8.09375C103.94 8.33333 104.307 8.65365 104.562 9.05469C104.818 9.45052 104.945 9.89062 104.945 10.375H103.5C103.5 10.1406 103.43 9.91406 103.289 9.69531C103.154 9.47135 102.953 9.28646 102.688 9.14062C102.427 8.99479 102.107 8.92188 101.727 8.92188C101.326 8.92188 101 8.98438 100.75 9.10938C100.505 9.22917 100.326 9.38281 100.211 9.57031C100.102 9.75781 100.047 9.95573 100.047 10.1641C100.047 10.3203 100.073 10.4609 100.125 10.5859C100.182 10.7057 100.281 10.8177 100.422 10.9219C100.562 11.0208 100.76 11.1146 101.016 11.2031C101.271 11.2917 101.596 11.3802 101.992 11.4688C102.685 11.625 103.255 11.8125 103.703 12.0312C104.151 12.25 104.484 12.5182 104.703 12.8359C104.922 13.1536 105.031 13.5391 105.031 13.9922C105.031 14.362 104.953 14.7005 104.797 15.0078C104.646 15.3151 104.424 15.5807 104.133 15.8047C103.846 16.0234 103.503 16.1953 103.102 16.3203C102.706 16.4401 102.26 16.5 101.766 16.5C101.021 16.5 100.391 16.3672 99.875 16.1016C99.3594 15.8359 98.9688 15.4922 98.7031 15.0703C98.4375 14.6484 98.3047 14.2031 98.3047 13.7344H99.7578C99.7786 14.1302 99.8932 14.4453 100.102 14.6797C100.31 14.9089 100.565 15.0729 100.867 15.1719C101.169 15.2656 101.469 15.3125 101.766 15.3125C102.161 15.3125 102.492 15.2604 102.758 15.1562C103.029 15.0521 103.234 14.9089 103.375 14.7266C103.516 14.5443 103.586 14.3359 103.586 14.1016ZM110.438 16.5C109.849 16.5 109.315 16.401 108.836 16.2031C108.362 16 107.953 15.7161 107.609 15.3516C107.271 14.987 107.01 14.5547 106.828 14.0547C106.646 13.5547 106.555 13.0078 106.555 12.4141V12.0859C106.555 11.3984 106.656 10.7865 106.859 10.25C107.062 9.70833 107.339 9.25 107.688 8.875C108.036 8.5 108.432 8.21615 108.875 8.02344C109.318 7.83073 109.776 7.73438 110.25 7.73438C110.854 7.73438 111.375 7.83854 111.812 8.04688C112.255 8.25521 112.617 8.54688 112.898 8.92188C113.18 9.29167 113.388 9.72917 113.523 10.2344C113.659 10.7344 113.727 11.2812 113.727 11.875V12.5234H107.414V11.3438H112.281V11.2344C112.26 10.8594 112.182 10.4948 112.047 10.1406C111.917 9.78646 111.708 9.49479 111.422 9.26562C111.135 9.03646 110.745 8.92188 110.25 8.92188C109.922 8.92188 109.62 8.99219 109.344 9.13281C109.068 9.26823 108.831 9.47135 108.633 9.74219C108.435 10.013 108.281 10.3438 108.172 10.7344C108.062 11.125 108.008 11.5755 108.008 12.0859V12.4141C108.008 12.8151 108.062 13.1927 108.172 13.5469C108.286 13.8958 108.451 14.2031 108.664 14.4688C108.883 14.7344 109.146 14.9427 109.453 15.0938C109.766 15.2448 110.12 15.3203 110.516 15.3203C111.026 15.3203 111.458 15.2161 111.812 15.0078C112.167 14.7995 112.477 14.5208 112.742 14.1719L113.617 14.8672C113.435 15.1432 113.203 15.4062 112.922 15.6562C112.641 15.9062 112.294 16.1094 111.883 16.2656C111.477 16.4219 110.995 16.5 110.438 16.5ZM116.859 9.21875V16.3438H115.414V7.89062H116.82L116.859 9.21875ZM119.5 7.84375L119.492 9.1875C119.372 9.16146 119.258 9.14583 119.148 9.14062C119.044 9.13021 118.924 9.125 118.789 9.125C118.456 9.125 118.161 9.17708 117.906 9.28125C117.651 9.38542 117.435 9.53125 117.258 9.71875C117.081 9.90625 116.94 10.1302 116.836 10.3906C116.737 10.6458 116.672 10.9271 116.641 11.2344L116.234 11.4688C116.234 10.9583 116.284 10.4792 116.383 10.0312C116.487 9.58333 116.646 9.1875 116.859 8.84375C117.073 8.49479 117.344 8.22396 117.672 8.03125C118.005 7.83333 118.401 7.73438 118.859 7.73438C118.964 7.73438 119.083 7.7474 119.219 7.77344C119.354 7.79427 119.448 7.81771 119.5 7.84375ZM123.547 15.0391L125.859 7.89062H127.336L124.297 16.3438H123.328L123.547 15.0391ZM121.617 7.89062L124 15.0781L124.164 16.3438H123.195L120.133 7.89062H121.617ZM132.125 16.5C131.536 16.5 131.003 16.401 130.523 16.2031C130.049 16 129.641 15.7161 129.297 15.3516C128.958 14.987 128.698 14.5547 128.516 14.0547C128.333 13.5547 128.242 13.0078 128.242 12.4141V12.0859C128.242 11.3984 128.344 10.7865 128.547 10.25C128.75 9.70833 129.026 9.25 129.375 8.875C129.724 8.5 130.12 8.21615 130.562 8.02344C131.005 7.83073 131.464 7.73438 131.938 7.73438C132.542 7.73438 133.062 7.83854 133.5 8.04688C133.943 8.25521 134.305 8.54688 134.586 8.92188C134.867 9.29167 135.076 9.72917 135.211 10.2344C135.346 10.7344 135.414 11.2812 135.414 11.875V12.5234H129.102V11.3438H133.969V11.2344C133.948 10.8594 133.87 10.4948 133.734 10.1406C133.604 9.78646 133.396 9.49479 133.109 9.26562C132.823 9.03646 132.432 8.92188 131.938 8.92188C131.609 8.92188 131.307 8.99219 131.031 9.13281C130.755 9.26823 130.518 9.47135 130.32 9.74219C130.122 10.013 129.969 10.3438 129.859 10.7344C129.75 11.125 129.695 11.5755 129.695 12.0859V12.4141C129.695 12.8151 129.75 13.1927 129.859 13.5469C129.974 13.8958 130.138 14.2031 130.352 14.4688C130.57 14.7344 130.833 14.9427 131.141 15.0938C131.453 15.2448 131.807 15.3203 132.203 15.3203C132.714 15.3203 133.146 15.2161 133.5 15.0078C133.854 14.7995 134.164 14.5208 134.43 14.1719L135.305 14.8672C135.122 15.1432 134.891 15.4062 134.609 15.6562C134.328 15.9062 133.982 16.1094 133.57 16.2656C133.164 16.4219 132.682 16.5 132.125 16.5ZM142.43 14.7031V4.34375H143.883V16.3438H142.555L142.43 14.7031ZM136.742 12.2109V12.0469C136.742 11.401 136.82 10.8151 136.977 10.2891C137.138 9.75781 137.365 9.30208 137.656 8.92188C137.953 8.54167 138.305 8.25 138.711 8.04688C139.122 7.83854 139.581 7.73438 140.086 7.73438C140.617 7.73438 141.081 7.82812 141.477 8.01562C141.878 8.19792 142.216 8.46615 142.492 8.82031C142.773 9.16927 142.995 9.59115 143.156 10.0859C143.318 10.5807 143.43 11.1406 143.492 11.7656V12.4844C143.435 13.1042 143.323 13.6615 143.156 14.1562C142.995 14.651 142.773 15.0729 142.492 15.4219C142.216 15.7708 141.878 16.0391 141.477 16.2266C141.076 16.4089 140.607 16.5 140.07 16.5C139.576 16.5 139.122 16.3932 138.711 16.1797C138.305 15.9661 137.953 15.6667 137.656 15.2812C137.365 14.8958 137.138 14.4427 136.977 13.9219C136.82 13.3958 136.742 12.8255 136.742 12.2109ZM138.195 12.0469V12.2109C138.195 12.6328 138.237 13.0286 138.32 13.3984C138.409 13.7682 138.544 14.0938 138.727 14.375C138.909 14.6562 139.141 14.8776 139.422 15.0391C139.703 15.1953 140.039 15.2734 140.43 15.2734C140.909 15.2734 141.302 15.1719 141.609 14.9688C141.922 14.7656 142.172 14.4974 142.359 14.1641C142.547 13.8307 142.693 13.4688 142.797 13.0781V11.1953C142.734 10.9089 142.643 10.6328 142.523 10.3672C142.409 10.0964 142.258 9.85677 142.07 9.64844C141.888 9.4349 141.661 9.26562 141.391 9.14062C141.125 9.01562 140.81 8.95312 140.445 8.95312C140.049 8.95312 139.708 9.03646 139.422 9.20312C139.141 9.36458 138.909 9.58854 138.727 9.875C138.544 10.1562 138.409 10.4844 138.32 10.8594C138.237 11.2292 138.195 11.625 138.195 12.0469ZM146.156 15.5781C146.156 15.3333 146.232 15.1276 146.383 14.9609C146.539 14.7891 146.763 14.7031 147.055 14.7031C147.346 14.7031 147.568 14.7891 147.719 14.9609C147.875 15.1276 147.953 15.3333 147.953 15.5781C147.953 15.8177 147.875 16.0208 147.719 16.1875C147.568 16.3542 147.346 16.4375 147.055 16.4375C146.763 16.4375 146.539 16.3542 146.383 16.1875C146.232 16.0208 146.156 15.8177 146.156 15.5781Z" fill="#8A95AD"/>
<path d="M720.633 4.96875L715.891 17.3203H714.648L719.398 4.96875H720.633Z" fill="#8A95AD"/>
</svg>
