<svg width="36" height="21" viewBox="0 0 36 21" fill="none" xmlns="http://www.w3.org/2000/svg">
<g clip-path="url(#clip0_1_947)">
<path d="M1.77777 0H33.7777C34.2493 0 34.7015 0.122916 35.0348 0.341709C35.3683 0.560501 35.5556 0.857247 35.5556 1.16666V19.8334C35.5556 20.1428 35.3683 20.4395 35.0348 20.6583C34.7015 20.8771 34.2493 21 33.7777 21H1.77777C1.30628 21 0.854097 20.8771 0.520699 20.6583C0.187301 20.4395 0 20.1428 0 19.8334V1.16666C0 0.857247 0.187301 0.560501 0.520699 0.341709C0.854097 0.122916 1.30628 0 1.77777 0ZM17.8844 10.1301L6.48533 3.77766L4.18311 5.55566L17.9076 13.2031L31.3849 5.54984L29.0596 3.78466L17.8863 10.1301H17.8844Z" fill="#424242" fill-opacity="0.5"/>
</g>
<defs>
<clipPath id="clip0_1_947">
<rect width="36" height="21" fill="white"/>
</clipPath>
</defs>
</svg>
