<svg width="202" height="24" viewBox="0 0 202 24" fill="none" xmlns="http://www.w3.org/2000/svg">
<g filter="url(#filter0_d_1_448)">
<path d="M1.49201 20V1.47422H9.10126C10.3778 1.47422 11.505 1.69802 12.4831 2.14563C13.4778 2.59323 14.257 3.25634 14.8206 4.13497C15.3843 5.0136 15.6661 6.0994 15.6661 7.3925C15.6661 8.6524 15.376 9.7217 14.7958 10.6003C14.2321 11.479 13.4529 12.1504 12.4583 12.6146C11.4802 13.0622 10.3612 13.286 9.10126 13.286H5.34637V20H1.49201ZM5.34637 9.9289H9.12612C9.93844 9.9289 10.585 9.6968 11.0657 9.2327C11.5631 8.7685 11.8117 8.1551 11.8117 7.3925C11.8117 6.6134 11.5631 5.99169 11.0657 5.52751C10.585 5.06333 9.93844 4.83124 9.12612 4.83124H5.34637V9.9289ZM23.3187 20.2984C21.9759 20.2984 20.7491 19.9917 19.6384 19.3783C18.5442 18.7649 17.6739 17.9278 17.0274 16.8668C16.3808 15.7892 16.0576 14.5707 16.0576 13.2114C16.0576 11.8354 16.3808 10.6169 17.0274 9.5559C17.6739 8.495 18.5442 7.6578 19.6384 7.0444C20.7491 6.431 21.9759 6.1243 23.3187 6.1243C24.6615 6.1243 25.8799 6.431 26.9741 7.0444C28.0848 7.6578 28.9634 8.495 29.61 9.5559C30.2565 10.6169 30.5798 11.8354 30.5798 13.2114C30.5798 14.5707 30.2565 15.7892 29.61 16.8668C28.9634 17.9278 28.0848 18.7649 26.9741 19.3783C25.8799 19.9917 24.6615 20.2984 23.3187 20.2984ZM23.3187 16.9414C24.3465 16.9414 25.1671 16.5932 25.7805 15.897C26.4104 15.2007 26.7254 14.3055 26.7254 13.2114C26.7254 12.1338 26.4104 11.2469 25.7805 10.5506C25.1671 9.8378 24.3465 9.4813 23.3187 9.4813C22.3074 9.4813 21.4868 9.8378 20.8568 10.5506C20.2269 11.2469 19.9119 12.1338 19.9119 13.2114C19.9119 14.3055 20.2269 15.2007 20.8568 15.897C21.4868 16.5932 22.3074 16.9414 23.3187 16.9414ZM32.0724 20V6.4227H35.5537V8.4618C35.9019 7.6163 36.3909 7.0444 37.0209 6.746C37.6674 6.431 38.4051 6.2735 39.234 6.2735H40.6514V9.5062H38.861C37.9492 9.5062 37.2115 9.788 36.6479 10.3517C36.0842 10.8987 35.8024 11.6779 35.8024 12.6892V20H32.0724ZM48.9023 20.1492C47.2611 20.1492 45.9846 19.7099 45.0729 18.8313C44.1776 17.9361 43.73 16.6927 43.73 15.1012V9.6554H41.3926V6.4227H41.5666C43.0089 6.4227 43.73 5.72645 43.73 4.3339V2.34456H47.4601V6.4227H50.643V9.6554H47.4601V15.1012C47.4601 16.4772 48.2309 17.1652 49.7727 17.1652C50.0048 17.1652 50.2949 17.1403 50.643 17.0906V20.0249C50.0959 20.1078 49.5157 20.1492 48.9023 20.1492ZM53.2128 20V9.6554H50.9002V6.4227H53.2128V6.0248C53.2128 4.41679 53.6853 3.17345 54.6303 2.29483C55.5752 1.4162 56.8931 0.976879 58.5841 0.976879C59.0814 0.976879 59.5207 1.01833 59.902 1.10122V4.28417C59.587 4.23444 59.3135 4.20957 59.0814 4.20957C57.6557 4.20957 56.9429 4.81466 56.9429 6.0248V6.4227H59.8772V9.6554H56.9429V20H53.2128ZM67.4194 20.2984C66.0766 20.2984 64.8498 19.9917 63.7391 19.3783C62.6449 18.7649 61.7746 17.9278 61.1281 16.8668C60.4815 15.7892 60.1583 14.5707 60.1583 13.2114C60.1583 11.8354 60.4815 10.6169 61.1281 9.5559C61.7746 8.495 62.6449 7.6578 63.7391 7.0444C64.8498 6.431 66.0766 6.1243 67.4194 6.1243C68.7622 6.1243 69.9807 6.431 71.0748 7.0444C72.1855 7.6578 73.0641 8.495 73.7107 9.5559C74.3572 10.6169 74.6805 11.8354 74.6805 13.2114C74.6805 14.5707 74.3572 15.7892 73.7107 16.8668C73.0641 17.9278 72.1855 18.7649 71.0748 19.3783C69.9807 19.9917 68.7622 20.2984 67.4194 20.2984ZM67.4194 16.9414C68.4472 16.9414 69.2678 16.5932 69.8812 15.897C70.5112 15.2007 70.8261 14.3055 70.8261 13.2114C70.8261 12.1338 70.5112 11.2469 69.8812 10.5506C69.2678 9.8378 68.4472 9.4813 67.4194 9.4813C66.4081 9.4813 65.5875 9.8378 64.9576 10.5506C64.3276 11.2469 64.0126 12.1338 64.0126 13.2114C64.0126 14.3055 64.3276 15.2007 64.9576 15.897C65.5875 16.5932 66.4081 16.9414 67.4194 16.9414ZM76.1731 20V1.47422H79.9031V20H76.1731ZM82.1411 5.20424V1.47422H85.8711V5.20424H82.1411ZM82.1411 20V6.4227H85.8711V20H82.1411ZM94.6243 20.2984C93.2814 20.2984 92.0547 19.9917 90.944 19.3783C89.8498 18.7649 88.9795 17.9278 88.3329 16.8668C87.6864 15.7892 87.3631 14.5707 87.3631 13.2114C87.3631 11.8354 87.6864 10.6169 88.3329 9.5559C88.9795 8.495 89.8498 7.6578 90.944 7.0444C92.0547 6.431 93.2814 6.1243 94.6243 6.1243C95.9671 6.1243 97.1855 6.431 98.2797 7.0444C99.3904 7.6578 100.269 8.495 100.916 9.5559C101.562 10.6169 101.885 11.8354 101.885 13.2114C101.885 14.5707 101.562 15.7892 100.916 16.8668C100.269 17.9278 99.3904 18.7649 98.2797 19.3783C97.1855 19.9917 95.9671 20.2984 94.6243 20.2984ZM94.6243 16.9414C95.6521 16.9414 96.4727 16.5932 97.0861 15.897C97.716 15.2007 98.031 14.3055 98.031 13.2114C98.031 12.1338 97.716 11.2469 97.0861 10.5506C96.4727 9.8378 95.6521 9.4813 94.6243 9.4813C93.613 9.4813 92.7924 9.8378 92.1624 10.5506C91.5325 11.2469 91.2175 12.1338 91.2175 13.2114C91.2175 14.3055 91.5325 15.2007 92.1624 15.897C92.7924 16.5932 93.613 16.9414 94.6243 16.9414ZM116.574 20.2984C115.248 20.2984 114.013 20.058 112.869 19.5773C111.742 19.0965 110.756 18.4251 109.91 17.5631C109.065 16.701 108.402 15.6898 107.921 14.5293C107.457 13.3688 107.225 12.1006 107.225 10.7247C107.225 9.3487 107.457 8.0805 107.921 6.9201C108.385 5.74303 109.04 4.73178 109.885 3.8863C110.731 3.02425 111.717 2.36114 112.844 1.89696C113.988 1.4162 115.232 1.17582 116.574 1.17582C117.917 1.17582 119.119 1.39962 120.18 1.84722C121.258 2.29483 122.169 2.89163 122.916 3.63763C123.662 4.38364 124.192 5.21253 124.507 6.1243L121.1 7.7655C120.785 6.8703 120.23 6.1326 119.434 5.55238C118.655 4.95558 117.702 4.65717 116.574 4.65717C115.48 4.65717 114.519 4.91413 113.69 5.42805C112.861 5.94196 112.214 6.6548 111.75 7.5666C111.303 8.4618 111.079 9.5145 111.079 10.7247C111.079 11.9349 111.303 12.9958 111.75 13.9076C112.214 14.8194 112.861 15.5323 113.69 16.0462C114.519 16.5601 115.48 16.817 116.574 16.817C117.702 16.817 118.655 16.5269 119.434 15.9467C120.23 15.3499 120.785 14.6039 121.1 13.7087L124.507 15.3499C124.192 16.2617 123.662 17.0906 122.916 17.8366C122.169 18.5826 121.258 19.1794 120.18 19.627C119.119 20.0746 117.917 20.2984 116.574 20.2984ZM126.242 20V6.4227H129.723V8.4618C130.071 7.6163 130.56 7.0444 131.19 6.746C131.837 6.431 132.575 6.2735 133.403 6.2735H134.821V9.5062H133.03C132.119 9.5062 131.381 9.788 130.817 10.3517C130.254 10.8987 129.972 11.6779 129.972 12.6892V20H126.242ZM142.437 20.2984C141.011 20.2984 139.76 19.9834 138.682 19.3535C137.621 18.7069 136.792 17.8449 136.195 16.7673C135.615 15.6898 135.325 14.4961 135.325 13.1865C135.325 11.8271 135.623 10.6169 136.22 9.5559C136.834 8.495 137.654 7.6578 138.682 7.0444C139.726 6.431 140.895 6.1243 142.188 6.1243C143.465 6.1243 144.609 6.4227 145.62 7.0195C146.631 7.6163 147.435 8.4204 148.032 9.4316C148.629 10.4263 148.927 11.5536 148.927 12.8135C148.927 13.0787 148.911 13.344 148.877 13.6092C148.861 13.8579 148.819 14.0734 148.753 14.2558H139.204C139.32 15.1012 139.668 15.7809 140.249 16.2948C140.829 16.8088 141.575 17.0657 142.487 17.0657C143.15 17.0657 143.713 16.9331 144.178 16.6678C144.658 16.4026 145.031 16.0379 145.297 15.5737L148.281 16.9911C147.866 17.9858 147.137 18.7898 146.092 19.4032C145.048 20 143.829 20.2984 142.437 20.2984ZM142.188 9.1083C141.459 9.1083 140.837 9.3156 140.323 9.73C139.809 10.1445 139.461 10.7413 139.279 11.5204H144.973C144.907 10.791 144.617 10.2108 144.103 9.7797C143.606 9.3321 142.967 9.1083 142.188 9.1083ZM154.451 20.2984C153.423 20.2984 152.528 20.1243 151.766 19.7762C151.02 19.4115 150.439 18.9307 150.025 18.3339C149.627 17.7205 149.428 17.0408 149.428 16.2948C149.428 15.2836 149.809 14.4547 150.572 13.8082C151.335 13.145 152.404 12.6726 153.78 12.3908L158.032 11.4955V11.0479C158.032 10.534 157.841 10.1279 157.46 9.8295C157.079 9.5145 156.573 9.357 155.943 9.357C155.28 9.357 154.692 9.5394 154.178 9.9041C153.68 10.2522 153.332 10.733 153.133 11.3463L149.926 9.8046C150.323 8.6773 151.061 7.7821 152.139 7.119C153.233 6.4559 154.501 6.1243 155.943 6.1243C157.104 6.1243 158.115 6.3315 158.977 6.746C159.856 7.1604 160.535 7.7407 161.016 8.4867C161.513 9.2161 161.762 10.0699 161.762 11.0479V20H158.281V18.7567C157.767 19.3037 157.195 19.7016 156.565 19.9503C155.952 20.1824 155.247 20.2984 154.451 20.2984ZM153.283 16.2451C153.283 16.6596 153.44 16.9828 153.755 17.2149C154.07 17.447 154.493 17.5631 155.023 17.5631C155.869 17.5631 156.582 17.2978 157.162 16.7673C157.742 16.2368 158.032 15.5903 158.032 14.8277V14.1812L154.451 14.9769C153.672 15.1593 153.283 15.582 153.283 16.2451ZM170.015 20.1492C168.374 20.1492 167.098 19.7099 166.186 18.8313C165.291 17.9361 164.843 16.6927 164.843 15.1012V9.6554H162.506V6.4227H162.68C164.122 6.4227 164.843 5.72645 164.843 4.3339V2.34456H168.573V6.4227H171.756V9.6554H168.573V15.1012C168.573 16.4772 169.344 17.1652 170.886 17.1652C171.118 17.1652 171.408 17.1403 171.756 17.0906V20.0249C171.209 20.1078 170.629 20.1492 170.015 20.1492ZM179.772 20.2984C178.429 20.2984 177.202 19.9917 176.091 19.3783C174.997 18.7649 174.127 17.9278 173.48 16.8668C172.834 15.7892 172.511 14.5707 172.511 13.2114C172.511 11.8354 172.834 10.6169 173.48 9.5559C174.127 8.495 174.997 7.6578 176.091 7.0444C177.202 6.431 178.429 6.1243 179.772 6.1243C181.115 6.1243 182.333 6.431 183.427 7.0444C184.538 7.6578 185.417 8.495 186.063 9.5559C186.71 10.6169 187.033 11.8354 187.033 13.2114C187.033 14.5707 186.71 15.7892 186.063 16.8668C185.417 17.9278 184.538 18.7649 183.427 19.3783C182.333 19.9917 181.115 20.2984 179.772 20.2984ZM179.772 16.9414C180.8 16.9414 181.62 16.5932 182.234 15.897C182.864 15.2007 183.178 14.3055 183.178 13.2114C183.178 12.1338 182.864 11.2469 182.234 10.5506C181.62 9.8378 180.8 9.4813 179.772 9.4813C178.76 9.4813 177.94 9.8378 177.31 10.5506C176.68 11.2469 176.365 12.1338 176.365 13.2114C176.365 14.3055 176.68 15.2007 177.31 15.897C177.94 16.5932 178.76 16.9414 179.772 16.9414ZM188.525 20V6.4227H192.007V8.4618C192.355 7.6163 192.844 7.0444 193.474 6.746C194.12 6.431 194.858 6.2735 195.687 6.2735H197.104V9.5062H195.314C194.402 9.5062 193.665 9.788 193.101 10.3517C192.537 10.8987 192.255 11.6779 192.255 12.6892V20H188.525Z" fill="black"/>
</g>
<defs>
<filter id="filter0_d_1_448" x="-2.50799" y="0.976879" width="203.612" height="27.3215" filterUnits="userSpaceOnUse" color-interpolation-filters="sRGB">
<feFlood flood-opacity="0" result="BackgroundImageFix"/>
<feColorMatrix in="SourceAlpha" type="matrix" values="0 0 0 0 0 0 0 0 0 0 0 0 0 0 0 0 0 0 127 0" result="hardAlpha"/>
<feOffset dy="4"/>
<feGaussianBlur stdDeviation="2"/>
<feComposite in2="hardAlpha" operator="out"/>
<feColorMatrix type="matrix" values="0 0 0 0 0 0 0 0 0 0 0 0 0 0 0 0 0 0 0.25 0"/>
<feBlend mode="normal" in2="BackgroundImageFix" result="effect1_dropShadow_1_448"/>
<feBlend mode="normal" in="SourceGraphic" in2="effect1_dropShadow_1_448" result="shape"/>
</filter>
</defs>
</svg>
